<?xml version="1.0" standalone="no"?>
<!DOCTYPE svg PUBLIC "-//W3C//DTD SVG 20010904//EN"
 "http://www.w3.org/TR/2001/REC-SVG-20010904/DTD/svg10.dtd">
<svg version="1.0" xmlns="http://www.w3.org/2000/svg"
 width="990.000000pt" height="117.000000pt" viewBox="0 0 990.000000 117.000000"
 preserveAspectRatio="xMidYMid meet">
<metadata>
Created by potrace 1.11, written by Peter Selinger 2001-2013
</metadata>
<g transform="translate(0.000000,117.000000) scale(0.100000,-0.100000)"
fill="#000000" stroke="none">
<path d="M360 1138 c-90 -45 -238 -210 -326 -363 l-29 -50 86 78 c141 129 205
162 228 119 13 -24 -8 -125 -43 -211 -14 -36 -26 -68 -26 -73 0 -4 42 24 93
62 93 71 180 120 214 120 47 0 55 -58 23 -150 -11 -30 -19 -58 -20 -62 0 -4
33 8 73 27 92 42 160 57 199 43 l31 -11 -9 -56 c-4 -31 -8 -99 -8 -151 0 -78
5 -109 27 -174 35 -99 104 -246 117 -246 13 0 82 147 117 246 22 65 27 96 27
174 0 52 -4 120 -8 151 l-9 56 31 11 c39 14 107 -1 200 -43 39 -19 72 -31 72
-27 -1 4 -9 32 -20 62 -32 92 -24 150 23 150 34 0 121 -49 215 -120 50 -38 92
-66 92 -62 0 5 -12 37 -26 73 -35 86 -56 187 -43 211 23 43 87 10 228 -119
l86 -78 -29 50 c-118 207 -314 395 -398 383 -16 -2 -32 -19 -52 -58 -152 -291
-286 -399 -401 -324 l-26 17 58 23 c73 30 123 81 123 127 0 28 8 41 50 76 28
23 50 46 50 52 0 5 -43 9 -97 9 -60 0 -114 6 -138 15 -52 19 -198 19 -250 0
-24 -9 -78 -15 -135 -15 l-94 0 47 -48 c39 -40 47 -54 47 -85 0 -50 47 -100
123 -131 l58 -23 -26 -17 c-115 -75 -249 33 -401 324 -34 65 -56 72 -124 38z"/>
<path d="M2855 1113 c-30 -8 -86 -14 -137 -13 -49 0 -88 -3 -88 -7 0 -5 18
-27 40 -48 30 -29 40 -47 40 -70 0 -53 35 -92 115 -129 l50 -23 -53 -12 c-77
-16 -219 -14 -283 5 -106 32 -209 99 -264 173 -24 32 -36 41 -61 41 -45 0
-104 -68 -160 -183 -38 -79 -79 -196 -71 -203 1 -2 29 15 61 37 65 44 95 54
131 45 35 -9 49 -41 49 -113 0 -35 1 -63 3 -63 1 0 25 14 52 30 73 45 165 80
210 80 50 0 66 -24 57 -86 l-6 -43 56 35 c121 77 226 113 237 82 2 -7 0 -29
-6 -48 -14 -52 -3 -187 22 -260 30 -88 109 -250 122 -250 15 0 105 196 129
281 21 76 26 182 12 234 -5 17 -7 36 -5 43 11 31 116 -5 237 -82 l56 -35 -6
43 c-9 62 7 86 57 86 45 0 137 -35 210 -80 27 -16 51 -30 52 -30 2 0 3 28 3
63 0 72 14 104 49 113 36 9 66 -1 131 -45 32 -22 60 -39 61 -37 8 7 -33 124
-71 203 -56 115 -115 183 -160 183 -25 0 -37 -9 -61 -41 -55 -74 -158 -141
-264 -173 -64 -19 -206 -21 -282 -5 l-52 11 61 29 c67 33 102 72 102 116 0 21
12 38 50 71 28 24 50 48 50 53 0 6 -38 10 -97 9 -64 -1 -117 4 -153 14 -67 19
-158 19 -225 -1z"/>
<path d="M4835 1105 c-27 -8 -92 -14 -142 -15 -52 0 -93 -4 -93 -10 0 -5 18
-24 40 -41 32 -26 40 -39 40 -66 0 -49 59 -109 130 -133 l54 -18 -50 -9 c-74
-12 -299 -9 -383 6 -41 7 -113 26 -159 42 -100 34 -136 36 -178 10 -36 -22
-79 -103 -89 -167 l-6 -41 80 5 c99 6 136 -7 152 -53 l12 -32 48 18 c26 10 77
23 114 29 74 12 113 1 129 -35 9 -20 12 -20 94 22 85 42 166 63 182 47 6 -6 3
-30 -5 -58 -20 -66 -19 -108 5 -200 19 -73 90 -239 124 -287 14 -21 16 -18 64
77 91 183 106 257 90 434 l-3 35 48 -2 c35 -1 74 -14 136 -45 85 -42 88 -43
97 -23 16 36 55 47 129 35 37 -6 88 -19 114 -29 l48 -18 12 32 c16 46 53 59
152 53 l80 -5 -6 41 c-10 64 -53 145 -89 167 -42 26 -78 24 -178 -10 -46 -16
-118 -35 -159 -42 -85 -15 -310 -18 -384 -5 l-50 8 39 14 c85 30 136 80 136
133 0 12 20 39 45 62 25 23 45 45 45 50 0 5 -43 9 -95 9 -51 0 -120 7 -152 15
-70 18 -151 18 -218 0z"/>
<path d="M6825 1095 c-27 -8 -92 -14 -142 -15 -51 0 -93 -4 -93 -8 0 -5 18
-23 40 -41 29 -23 40 -39 40 -59 0 -46 36 -91 93 -117 28 -14 60 -25 70 -25
36 0 14 -18 -75 -62 -178 -88 -323 -129 -530 -153 -130 -14 -168 -25 -168 -49
0 -23 9 -23 93 1 45 13 94 22 109 19 15 -3 62 2 105 10 43 8 107 14 143 13 50
-2 74 2 107 19 35 18 142 52 163 52 25 -1 29 -18 15 -64 -8 -27 -15 -68 -15
-90 0 -83 61 -253 133 -370 l24 -38 36 65 c51 91 98 211 110 285 11 59 4 130
-18 184 -4 11 0 18 12 22 24 8 122 -18 176 -46 33 -17 57 -21 107 -19 36 1
100 -5 143 -13 43 -8 90 -13 105 -10 15 3 64 -6 109 -19 84 -24 93 -24 93 -1
0 24 -38 35 -168 49 -207 24 -352 65 -529 153 -92 45 -112 62 -73 62 33 0 108
40 135 72 14 16 25 42 25 57 0 20 12 37 45 64 25 21 45 42 45 47 0 6 -43 10
-97 10 -58 0 -118 6 -147 15 -60 18 -154 18 -221 0z"/>
<path d="M8805 1095 c-27 -8 -93 -14 -145 -15 l-95 0 48 -46 c37 -36 47 -52
47 -78 0 -43 52 -93 120 -116 59 -20 56 -25 -40 -65 -83 -36 -154 -39 -179 -9
-17 21 -17 21 -70 -27 -89 -79 -167 -104 -209 -66 -18 17 -20 16 -36 -26 -9
-24 -31 -58 -48 -76 -31 -31 -36 -33 -85 -28 -61 6 -72 -10 -26 -40 44 -29
248 -23 378 11 99 26 238 86 297 127 28 21 30 21 25 3 -26 -88 -28 -109 -17
-171 14 -81 48 -173 102 -275 49 -91 44 -93 109 34 67 133 92 221 86 308 -2
41 -8 82 -11 91 -5 11 28 -1 101 -37 150 -76 271 -106 433 -108 105 -1 130 2
153 17 46 30 35 46 -26 40 -49 -5 -54 -3 -85 28 -17 18 -39 52 -48 76 -16 42
-18 43 -36 26 -42 -38 -120 -13 -209 66 -53 48 -53 48 -70 27 -14 -16 -28 -21
-66 -20 -49 1 -165 43 -193 70 -12 12 -11 14 10 14 67 1 160 75 160 128 0 20
13 37 50 67 27 22 49 43 50 48 0 4 -43 7 -95 7 -51 0 -120 7 -152 15 -70 18
-161 18 -228 0z"/>
</g>
</svg>
