<?xml version="1.0" encoding="UTF-8" standalone="no"?>
<svg
   xmlns:dc="http://purl.org/dc/elements/1.1/"
   xmlns:cc="http://creativecommons.org/ns#"
   xmlns:rdf="http://www.w3.org/1999/02/22-rdf-syntax-ns#"
   xmlns:svg="http://www.w3.org/2000/svg"
   xmlns="http://www.w3.org/2000/svg"
   xmlns:sodipodi="http://sodipodi.sourceforge.net/DTD/sodipodi-0.dtd"
   xmlns:inkscape="http://www.inkscape.org/namespaces/inkscape"
   width="774pt"
   height="122pt"
   viewBox="0 0 774 122"
   version="1.1"
   id="svg2"
   inkscape:version="0.91 r13725"
   sodipodi:docname="kill_sprint_no_background.svg">
  <metadata
     id="metadata600">
    <rdf:RDF>
      <cc:Work
         rdf:about="">
        <dc:format>image/svg+xml</dc:format>
        <dc:type
           rdf:resource="http://purl.org/dc/dcmitype/StillImage" />
        <dc:title></dc:title>
      </cc:Work>
    </rdf:RDF>
  </metadata>
  <defs
     id="defs598" />
  <sodipodi:namedview
     pagecolor="#ffffff"
     bordercolor="#666666"
     borderopacity="1"
     objecttolerance="10"
     gridtolerance="10"
     guidetolerance="10"
     inkscape:pageopacity="0"
     inkscape:pageshadow="2"
     inkscape:window-width="1270"
     inkscape:window-height="692"
     id="namedview596"
     showgrid="false"
     inkscape:zoom="3.4811369"
     inkscape:cx="885.91746"
     inkscape:cy="76.25"
     inkscape:window-x="0"
     inkscape:window-y="0"
     inkscape:window-maximized="0"
     inkscape:current-layer="svg2" />
  <path
     fill="#bdc0e4"
     d=" M 449.86 6.05 C 449.91 2.10 457.58 -0.16 459.12 3.91 C 455.78 3.73 452.39 3.68 449.86 6.05 Z"
     id="path6" />
  <path
     fill="#c7c2a9"
     d=" M 716.96 3.95 C 717.62 1.13 724.92 0.68 723.95 3.99 C 722.20 3.98 718.71 3.96 716.96 3.95 Z"
     id="path8" />
  <path
     fill="#eb5556"
     d=" M 14.83 10.06 C 19.05 15.33 20.21 3.41 25.02 3.07 C 29.71 3.79 24.86 14.85 29.76 13.76 C 32.31 11.22 36.92 4.51 40.69 9.31 C 43.98 14.91 40.93 22.04 36.81 26.31 C 36.38 26.06 35.52 25.56 35.08 25.31 C 40.05 22.12 43.04 13.84 38.76 9.04 C 33.83 8.30 32.54 16.61 27.25 14.95 C 26.84 11.62 26.44 8.28 25.76 4.98 C 20.75 4.90 19.77 16.94 14.39 11.43 C 10.27 15.15 10.53 21.79 9.97 27.01 C 9.74 27.30 9.27 27.86 9.04 28.15 C 9.52 22.89 8.51 11.77 14.83 10.06 Z"
     id="path10" />
  <path
     fill="#ed5758"
     d=" M 126.69 9.70 C 127.24 6.94 127.81 1.85 131.82 3.06 C 133.44 5.11 133.90 7.76 135.10 10.03 C 136.87 9.15 137.60 6.18 139.80 6.31 C 144.48 8.44 143.91 14.60 144.17 18.97 L 143.11 18.94 C 143.33 15.16 142.80 11.36 140.69 8.17 C 137.90 7.23 137.23 11.98 134.23 10.99 C 132.97 8.73 132.23 6.22 130.87 4.01 C 127.61 4.88 129.38 10.49 125.97 10.98 C 119.25 12.19 124.77 21.16 125.89 24.98 L 125.30 24.54 C 121.31 20.83 118.86 9.36 126.69 9.70 Z"
     id="path12" />
  <path
     fill="#b67451"
     d=" M 248.01 4.14 C 252.64 4.26 257.19 2.93 261.82 3.05 C 262.80 4.57 263.06 6.73 265.03 7.35 C 264.94 7.84 264.76 8.82 264.67 9.30 C 263.21 8.06 262.12 6.49 261.10 4.89 C 259.84 2.48 256.14 4.34 254.29 5.33 C 259.51 9.03 247.15 10.91 255.74 11.73 C 256.05 11.96 256.66 12.41 256.97 12.64 C 256.76 13.20 256.34 14.34 256.13 14.91 C 253.94 13.86 252.29 13.84 253.08 16.75 C 251.35 13.67 246.74 18.14 249.15 20.35 C 248.67 20.57 247.70 21.03 247.22 21.25 C 244.45 14.80 248.42 8.26 255.05 7.67 C 253.46 5.09 247.04 8.19 248.01 4.14 Z"
     id="path14" />
  <path
     fill="#9e4e4c"
     d=" M 393.92 8.88 C 391.72 -3.35 402.95 8.10 397.87 11.70 C 396.56 10.49 394.91 9.90 393.13 9.90 C 393.33 9.64 393.72 9.13 393.92 8.88 Z"
     id="path16" />
  <path
     fill="#bdbdc5"
     d=" M 553.79 5.67 C 554.28 2.57 561.68 1.14 561.80 5.02 C 559.08 5.18 556.45 5.28 553.79 5.67 Z"
     id="path18" />
  <path
     fill="#c4c2c0"
     d=" M 637.05 6.02 C 638.17 3.15 643.61 1.34 645.07 4.82 C 642.33 5.18 639.71 5.53 637.05 6.02 Z"
     id="path20" />
  <path
     fill="#d40506"
     d=" M 125.97 10.98 C 129.38 10.49 127.61 4.88 130.87 4.01 C 132.23 6.22 132.97 8.73 134.23 10.99 C 137.23 11.98 137.90 7.23 140.69 8.17 C 142.80 11.36 143.33 15.16 143.11 18.94 C 140.10 19.06 136.54 18.16 134.61 20.96 C 131.36 16.33 128.21 22.66 126.45 25.44 L 125.89 24.98 C 124.77 21.16 119.25 12.19 125.97 10.98 Z"
     id="path22" />
  <path
     fill="#821e17"
     d=" M 254.29 5.33 C 256.14 4.34 259.84 2.48 261.10 4.89 C 259.29 7.15 257.43 9.38 255.74 11.73 C 247.15 10.91 259.51 9.03 254.29 5.33 Z"
     id="path24" />
  <path
     fill="#c98644"
     d=" M 348.46 5.35 C 352.74 3.38 361.72 5.63 363.05 11.12 C 359.05 6.60 347.05 6.06 346.45 13.63 C 343.86 16.41 337.15 9.39 341.74 17.92 C 342.09 18.20 342.78 18.75 343.13 19.03 C 343.75 22.33 340.39 22.75 337.97 23.27 C 333.95 20.30 342.41 15.79 340.70 11.69 C 341.79 7.87 348.45 10.42 348.46 5.35 Z"
     id="path26" />
  <path
     fill="#a7a396"
     d=" M 449.86 6.05 C 452.39 3.68 455.78 3.73 459.12 3.91 C 459.32 4.16 459.72 4.65 459.92 4.89 C 456.78 6.23 453.42 6.93 450.02 7.08 L 449.86 6.05 Z"
     id="path28" />
  <path
     fill="#f6c641"
     d=" M 713.91 16.19 C 712.17 11.95 713.68 6.88 716.96 3.95 C 718.71 3.96 722.20 3.98 723.95 3.99 C 728.20 6.11 729.95 11.53 731.26 15.90 C 731.93 15.34 732.61 14.78 733.29 14.21 C 736.15 14.09 739.16 13.98 742.09 13.92 C 743.48 14.66 745.44 16.09 744.94 17.93 C 738.76 23.84 742.18 39.52 730.31 38.30 C 726.15 32.90 726.03 25.33 721.77 20.19 C 717.78 19.79 720.04 25.65 719.54 28.17 C 718.38 25.50 716.84 23.02 715.04 20.74 C 714.99 24.01 715.80 27.21 716.89 30.26 C 712.31 29.16 711.47 21.39 706.22 22.04 C 701.59 27.27 708.31 32.08 710.81 36.19 C 703.64 31.96 697.13 24.17 698.14 15.30 C 699.71 13.75 701.25 12.14 702.39 10.24 C 706.71 6.14 711.28 13.01 713.91 16.19 Z"
     id="path30" />
  <path
     fill="#cf0102"
     d=" M 14.39 11.43 C 19.77 16.94 20.75 4.90 25.76 4.98 C 26.44 8.28 26.84 11.62 27.25 14.95 C 32.54 16.61 33.83 8.30 38.76 9.04 C 43.04 13.84 40.05 22.12 35.08 25.31 C 28.76 20.82 21.44 24.12 14.93 26.11 C 13.21 24.40 11.49 25.86 9.97 27.01 C 10.53 21.79 10.27 15.15 14.39 11.43 Z"
     id="path32" />
  <path
     fill="#080706"
     d=" M 261.10 4.89 C 262.12 6.49 263.21 8.06 264.67 9.30 C 267.21 13.40 269.63 11.11 271.44 7.75 C 271.63 7.51 272.02 7.05 272.21 6.82 C 274.90 7.29 278.16 8.17 278.22 11.50 C 277.98 11.81 277.51 12.42 277.27 12.73 C 274.04 15.39 273.82 17.82 278.22 18.91 C 279.32 21.20 276.29 29.91 274.24 26.03 C 272.60 22.81 268.07 19.95 266.66 25.01 C 265.09 29.28 261.62 29.44 258.81 26.17 C 254.56 23.55 260.19 21.11 261.96 18.83 C 265.11 15.53 258.89 14.36 256.97 12.64 C 256.66 12.41 256.05 11.96 255.74 11.73 C 257.43 9.38 259.29 7.15 261.10 4.89 Z"
     id="path34" />
  <path
     fill="#525150"
     d=" M 271.90 6.30 C 274.54 3.06 282.30 8.51 278.74 12.07 L 278.22 11.50 C 278.16 8.17 274.90 7.29 272.21 6.82 L 271.90 6.30 Z"
     id="path36" />
  <path
     fill="#edc855"
     d=" M 450.02 7.08 C 453.42 6.93 456.78 6.23 459.92 4.89 C 462.36 5.90 464.10 8.47 465.15 10.85 C 460.81 8.83 455.28 7.92 450.86 9.78 C 450.00 10.32 449.17 10.91 448.37 11.53 C 447.94 9.82 447.51 7.15 450.02 7.08 Z"
     id="path38" />
  <path
     fill="#f0c03f"
     d=" M 553.79 5.67 C 556.45 5.28 559.08 5.18 561.80 5.02 C 566.84 9.64 569.48 15.87 570.13 22.63 C 570.61 22.52 571.57 22.29 572.05 22.18 C 574.98 22.06 578.02 21.98 581.00 21.95 C 582.35 22.32 583.42 23.65 583.93 24.93 C 573.53 24.39 567.39 34.43 568.26 43.75 C 567.74 44.99 567.13 46.20 566.28 47.24 C 567.37 39.40 564.48 31.32 563.27 23.71 C 559.17 18.94 557.15 26.47 557.43 30.18 C 556.34 27.66 554.86 25.33 553.77 22.81 C 553.32 20.66 552.36 18.68 551.24 16.81 C 550.10 13.08 550.62 8.26 553.79 5.67 Z"
     id="path40" />
  <path
     fill="#f7c641"
     d=" M 637.05 6.02 C 639.71 5.53 642.33 5.18 645.07 4.82 C 649.26 7.73 651.63 12.98 652.25 17.97 C 653.15 17.64 654.04 17.29 654.94 16.92 C 657.92 16.39 661.04 15.83 663.94 17.02 C 664.73 18.03 665.61 19.00 666.12 20.20 C 657.48 24.90 662.74 39.69 651.05 40.25 C 646.97 35.57 647.96 26.61 642.21 23.85 C 641.95 25.25 641.42 28.05 641.16 29.45 C 639.51 26.98 637.87 24.48 636.61 21.78 C 636.79 20.00 636.05 18.41 635.14 16.95 C 633.20 13.45 634.62 8.92 637.05 6.02 Z"
     id="path42" />
  <path
     fill="#ca8e55"
     d=" M 266.18 6.76 C 267.26 5.34 270.24 5.77 271.90 6.30 L 272.21 6.82 C 272.02 7.05 271.63 7.51 271.44 7.75 C 269.72 7.27 267.95 6.97 266.18 6.76 Z"
     id="path44" />
  <path
     fill="#ddd3c9"
     d=" M 265.03 7.35 L 266.18 6.76 C 267.95 6.97 269.72 7.27 271.44 7.75 C 269.63 11.11 267.21 13.40 264.67 9.30 C 264.76 8.82 264.94 7.84 265.03 7.35 Z"
     id="path46" />
  <path
     fill="#e6bc66"
     d=" M 376.59 17.42 C 379.24 12.11 388.20 3.56 393.92 8.88 C 393.72 9.13 393.33 9.64 393.13 9.90 C 392.86 10.23 392.31 10.89 392.04 11.22 C 390.35 11.26 388.67 11.08 386.99 11.05 C 382.52 10.65 379.86 15.13 376.59 17.42 Z"
     id="path48" />
  <path
     fill="#986433"
     d=" M 346.45 13.63 C 347.05 6.06 359.05 6.60 363.05 11.12 C 364.18 18.09 357.24 27.34 363.98 32.43 L 363.85 33.27 C 363.59 34.50 363.52 35.77 363.52 37.03 C 362.76 37.32 362.01 37.61 361.27 37.92 C 355.95 34.80 352.16 28.62 345.38 28.49 C 342.38 27.69 339.76 25.80 337.97 23.27 C 340.39 22.75 343.75 22.33 343.13 19.03 C 346.90 20.94 344.20 24.35 340.94 24.61 C 348.00 27.90 355.58 29.78 360.99 36.02 C 361.39 30.41 362.07 20.20 353.98 24.02 C 349.80 15.83 362.44 17.16 359.00 8.92 C 355.80 9.89 352.53 10.42 349.20 10.55 C 351.47 16.67 345.51 16.83 341.74 17.92 C 337.15 9.39 343.86 16.41 346.45 13.63 Z"
     id="path50" />
  <path
     fill="#100d09"
     d=" M 405.27 8.14 C 407.58 8.24 409.37 10.57 411.05 12.03 C 409.93 15.17 403.06 19.06 409.26 20.30 C 409.65 20.48 410.41 20.84 410.80 21.02 C 409.90 23.10 408.99 25.18 407.91 27.16 C 407.17 24.89 407.00 20.62 404.01 20.07 C 399.05 20.83 399.40 26.78 396.79 29.95 C 394.16 30.53 393.07 27.38 391.25 26.06 C 389.94 24.69 390.45 23.62 392.07 22.90 C 393.42 21.63 396.40 20.50 395.83 18.30 C 393.37 16.31 387.86 14.60 392.04 11.22 C 392.31 10.89 392.86 10.23 393.13 9.90 C 394.91 9.90 396.56 10.49 397.87 11.70 C 401.02 16.27 403.27 10.73 405.27 8.14 Z"
     id="path52" />
  <path
     fill="#6e441e"
     d=" M 349.20 10.55 C 352.53 10.42 355.80 9.89 359.00 8.92 C 362.44 17.16 349.80 15.83 353.98 24.02 C 362.07 20.20 361.39 30.41 360.99 36.02 C 355.58 29.78 348.00 27.90 340.94 24.61 C 344.20 24.35 346.90 20.94 343.13 19.03 C 342.78 18.75 342.09 18.20 341.74 17.92 C 345.51 16.83 351.47 16.67 349.20 10.55 Z"
     id="path54" />
  <path
     fill="#b4b2b3"
     d=" M 433.03 16.12 C 428.82 13.91 436.77 5.86 439.10 9.96 C 437.75 11.18 436.46 12.46 435.29 13.84 C 434.52 14.58 433.77 15.35 433.03 16.12 Z"
     id="path56" />
  <path
     fill="#c89f37"
     d=" M 450.86 9.78 C 455.28 7.92 460.81 8.83 465.15 10.85 C 468.67 12.75 469.67 16.18 468.25 19.99 C 467.20 26.03 467.21 32.19 467.64 38.28 C 467.82 40.21 467.97 42.14 468.03 44.08 L 468.02 44.95 L 467.25 45.25 C 464.94 39.98 470.04 25.71 459.32 29.36 C 454.61 30.45 445.64 28.93 446.80 36.07 C 444.92 34.57 443.18 32.88 441.63 31.04 C 441.91 26.22 447.48 19.70 451.04 26.07 C 452.48 29.71 456.46 29.64 456.04 25.21 C 456.78 21.38 460.91 20.51 463.77 18.61 C 464.44 11.59 456.97 8.53 450.86 9.78 Z"
     id="path58" />
  <path
     fill="#b5ae95"
     d=" M 698.14 15.30 C 696.11 12.28 700.92 7.57 702.39 10.24 C 701.25 12.14 699.71 13.75 698.14 15.30 Z"
     id="path60" />
  <path
     fill="#edca5f"
     d=" M 439.10 9.96 C 442.18 9.47 445.00 10.88 447.76 12.03 C 444.13 13.92 439.19 15.88 435.29 13.84 C 436.46 12.46 437.75 11.18 439.10 9.96 Z"
     id="path62" />
  <path
     fill="#ab8930"
     d=" M 448.37 11.53 C 449.17 10.91 450.00 10.32 450.86 9.78 C 456.97 8.53 464.44 11.59 463.77 18.61 C 460.91 20.51 456.78 21.38 456.04 25.21 C 449.38 23.57 455.72 12.45 447.23 14.79 C 448.64 18.49 450.44 22.11 451.04 26.07 C 447.48 19.70 441.91 26.22 441.63 31.04 C 438.98 26.20 431.88 22.43 433.03 16.12 C 433.77 15.35 434.52 14.58 435.29 13.84 C 439.19 15.88 444.13 13.92 447.76 12.03 L 448.37 11.53 Z"
     id="path64" />
  <path
     fill="#b5b1a6"
     d=" M 535.89 16.83 C 531.87 15.66 539.30 7.53 541.16 11.04 C 539.41 12.98 537.65 14.91 535.89 16.83 Z"
     id="path66" />
  <path
     fill="#bab7af"
     d=" M 618.96 16.13 C 617.55 12.17 624.91 8.11 625.69 10.66 C 623.40 12.44 621.17 14.28 618.96 16.13 Z"
     id="path68" />
  <path
     fill="#b6842c"
     d=" M 376.59 17.42 C 379.86 15.13 382.52 10.65 386.99 11.05 C 385.68 12.89 384.85 14.99 384.13 17.11 C 381.69 18.96 378.47 21.11 376.59 17.42 Z"
     id="path70" />
  <path
     fill="#8d6224"
     d=" M 386.99 11.05 C 388.67 11.08 390.35 11.26 392.04 11.22 C 387.86 14.60 393.37 16.31 395.83 18.30 C 396.40 20.50 393.42 21.63 392.07 22.90 C 392.96 18.39 388.58 15.30 384.13 17.11 C 384.85 14.99 385.68 12.89 386.99 11.05 Z"
     id="path72" />
  <path
     fill="#edbd3e"
     d=" M 541.16 11.04 C 544.36 10.45 548.34 12.78 549.10 15.93 C 550.40 20.99 551.85 26.03 552.89 31.16 C 550.30 29.11 548.80 22.67 544.71 25.68 C 539.99 29.62 545.42 34.76 547.96 38.14 L 547.16 37.97 C 540.97 33.61 533.95 24.75 535.89 16.83 C 537.65 14.91 539.41 12.98 541.16 11.04 Z"
     id="path74" />
  <path
     fill="#f6c641"
     d=" M 618.96 16.13 C 621.17 14.28 623.40 12.44 625.69 10.66 C 628.88 10.74 631.65 13.24 632.89 16.00 C 634.32 20.68 634.56 25.75 636.90 30.12 C 637.17 30.63 637.72 31.65 637.99 32.16 C 633.48 31.74 633.60 23.28 628.19 25.01 C 625.07 28.80 626.53 33.22 629.97 36.10 C 622.55 32.88 618.93 23.84 618.96 16.13 Z"
     id="path76" />
  <path
     fill="#c6c3b7"
     d=" M 733.29 14.21 C 733.73 10.31 740.51 10.14 742.09 13.92 C 739.16 13.98 736.15 14.09 733.29 14.21 Z"
     id="path78" />
  <path
     fill="#b99875"
     d=" M 277.27 12.73 C 277.51 12.42 277.98 11.81 278.22 11.50 L 278.74 12.07 C 280.39 13.95 280.79 16.32 279.93 19.16 L 279.10 19.02 C 278.98 16.80 279.16 14.30 277.27 12.73 Z"
     id="path80" />
  <path
     fill="#f1eddf"
     d=" M 256.13 14.91 C 256.34 14.34 256.76 13.20 256.97 12.64 C 258.89 14.36 265.11 15.53 261.96 18.83 C 261.52 18.75 260.66 18.60 260.23 18.53 C 256.42 17.49 252.85 19.82 249.15 20.35 C 246.74 18.14 251.35 13.67 253.08 16.75 C 254.92 19.27 255.60 16.87 256.13 14.91 Z"
     id="path82" />
  <path
     fill="#e4e4e5"
     d=" M 277.27 12.73 C 279.16 14.30 278.98 16.80 279.10 19.02 L 278.22 18.91 C 273.82 17.82 274.04 15.39 277.27 12.73 Z"
     id="path84" />
  <path
     fill="#c47e3d"
     d=" M 516.97 20.70 C 517.32 13.12 528.26 9.42 531.26 16.82 C 526.41 14.30 529.09 22.23 525.13 22.11 C 521.45 22.48 519.36 25.20 518.48 28.57 C 516.88 32.93 511.42 29.70 507.94 30.75 C 508.90 25.97 510.61 17.43 516.97 20.70 Z"
     id="path86" />
  <path
     fill="#2a2825"
     d=" M 253.08 16.75 C 252.29 13.84 253.94 13.86 256.13 14.91 C 255.60 16.87 254.92 19.27 253.08 16.75 Z"
     id="path88" />
  <path
     fill="#c0c0c8"
     d=" M 654.94 16.92 C 655.31 12.67 662.72 13.34 663.94 17.02 C 661.04 15.83 657.92 16.39 654.94 16.92 Z"
     id="path90" />
  <path
     fill="#896d31"
     d=" M 447.23 14.79 C 455.72 12.45 449.38 23.57 456.04 25.21 C 456.46 29.64 452.48 29.71 451.04 26.07 C 450.44 22.11 448.64 18.49 447.23 14.79 Z"
     id="path92" />
  <path
     fill="#c9c1ba"
     d=" M 409.26 20.30 C 409.45 15.96 411.88 15.58 411.15 20.38 L 410.80 21.02 C 410.41 20.84 409.65 20.48 409.26 20.30 Z"
     id="path94" />
  <path
     fill="#a56c2f"
     d=" M 525.13 22.11 C 529.09 22.23 526.41 14.30 531.26 16.82 C 530.48 19.31 529.93 23.59 528.03 24.71 C 520.29 21.09 521.50 33.11 514.99 32.98 C 509.94 33.12 513.78 40.03 510.32 42.32 C 508.40 45.70 501.20 44.28 502.73 40.13 C 504.09 39.09 504.97 37.67 505.28 35.98 C 507.49 40.74 508.90 33.37 507.94 30.75 C 511.42 29.70 516.88 32.93 518.48 28.57 C 519.36 25.20 521.45 22.48 525.13 22.11 Z"
     id="path96" />
  <path
     fill="#bc953c"
     d=" M 549.10 15.93 C 549.64 16.15 550.71 16.59 551.24 16.81 C 552.36 18.68 553.32 20.66 553.77 22.81 C 553.09 26.05 553.71 29.26 554.92 32.26 C 554.41 31.99 553.40 31.44 552.89 31.16 C 551.85 26.03 550.40 20.99 549.10 15.93 Z"
     id="path98" />
  <path
     fill="#caa03f"
     d=" M 632.89 16.00 C 633.46 16.23 634.58 16.71 635.14 16.95 C 636.05 18.41 636.79 20.00 636.61 21.78 C 636.05 24.55 636.59 27.35 636.90 30.12 C 634.56 25.75 634.32 20.68 632.89 16.00 Z"
     id="path100" />
  <path
     fill="#aaa9ae"
     d=" M 755.38 16.55 C 755.60 14.44 766.11 18.11 761.90 22.18 C 759.74 20.26 757.59 18.37 755.38 16.55 Z"
     id="path102" />
  <path
     fill="#ecaf37"
     d=" M 374.33 25.16 C 371.41 23.26 375.25 17.74 376.59 17.42 C 378.47 21.11 381.69 18.96 384.13 17.11 C 388.58 15.30 392.96 18.39 392.07 22.90 C 390.45 23.62 389.94 24.69 391.25 26.06 C 388.55 29.10 387.13 26.74 385.96 23.88 C 384.00 24.15 382.08 24.66 380.15 25.05 C 379.41 25.08 377.94 25.14 377.21 25.17 C 376.49 25.17 375.05 25.16 374.33 25.16 Z"
     id="path104" />
  <path
     fill="#c77e34"
     d=" M 411.15 20.38 C 414.36 17.44 422.38 14.58 423.02 20.84 C 419.19 22.82 412.79 22.99 411.86 28.11 C 415.80 26.95 419.36 24.81 423.00 22.94 C 425.44 24.02 428.77 25.63 428.04 28.87 C 423.82 31.36 418.02 31.17 414.76 35.01 C 417.91 34.96 420.94 34.08 423.97 33.30 C 426.29 34.10 427.07 36.69 427.16 38.93 C 420.70 39.52 414.41 41.04 408.11 42.47 C 404.17 39.76 402.10 34.89 398.91 31.29 C 402.03 30.77 406.47 30.69 407.91 27.16 C 408.99 25.18 409.90 23.10 410.80 21.02 L 411.15 20.38 Z"
     id="path106" />
  <path
     fill="#f3c23e"
     d=" M 746.72 24.26 C 748.64 20.89 750.98 16.54 755.38 16.55 C 757.59 18.37 759.74 20.26 761.90 22.18 L 762.16 23.05 C 756.29 31.16 751.31 40.10 748.74 49.80 C 744.26 53.14 736.94 56.47 732.13 52.08 L 732.13 51.21 C 729.18 39.55 740.93 43.83 746.20 38.25 L 746.36 37.30 C 747.11 32.99 747.01 28.61 746.72 24.26 Z"
     id="path108" />
  <path
     fill="#525251"
     d=" M 145.30 19.02 C 147.53 16.35 151.25 22.79 153.15 24.00 L 152.22 24.04 C 149.80 22.52 147.42 20.91 144.86 19.63 L 145.30 19.02 Z"
     id="path110" />
  <path
     fill="#fadd58"
     d=" M 249.15 20.35 C 252.85 19.82 256.42 17.49 260.23 18.53 C 253.65 18.45 256.90 29.14 250.95 29.23 C 248.38 28.02 245.65 26.32 242.81 27.80 C 243.51 25.19 245.11 22.93 247.22 21.25 C 247.70 21.03 248.67 20.57 249.15 20.35 Z"
     id="path112" />
  <path
     fill="#afadb1"
     d=" M 676.71 19.29 C 679.17 16.91 685.32 20.22 683.73 23.78 L 683.36 24.51 C 681.11 22.81 678.83 21.14 676.71 19.29 Z"
     id="path114" />
  <path
     fill="#cba239"
     d=" M 744.94 17.93 C 746.27 19.19 746.86 21.30 746.72 24.26 C 747.01 28.61 747.11 32.99 746.36 37.30 C 746.21 34.45 746.03 31.60 745.81 28.76 C 744.33 32.19 738.84 39.59 746.20 38.25 C 740.93 43.83 729.18 39.55 732.13 51.21 C 732.11 49.77 732.09 48.34 732.06 46.91 C 732.05 46.45 732.02 45.54 732.01 45.09 C 732.10 41.96 730.33 41.63 728.73 44.12 C 726.80 44.04 724.87 43.97 722.96 44.00 C 725.97 42.90 729.06 41.52 730.31 38.30 C 742.18 39.52 738.76 23.84 744.94 17.93 Z"
     id="path116" />
  <path
     fill="#090605"
     d=" M 126.45 25.44 C 128.21 22.66 131.36 16.33 134.61 20.96 C 137.49 26.78 142.73 24.77 144.86 19.63 C 147.42 20.91 149.80 22.52 152.22 24.04 C 151.81 24.53 150.99 25.51 150.57 26.01 C 150.10 26.55 149.64 27.11 149.21 27.69 C 146.77 29.81 146.45 32.26 149.96 33.22 C 153.06 34.10 154.94 35.80 152.84 38.91 C 152.13 39.83 151.45 40.78 150.84 41.77 C 150.11 44.00 148.41 44.08 147.29 42.15 C 143.61 35.24 138.67 36.57 136.93 44.07 C 135.36 44.91 133.72 44.42 132.19 43.77 C 131.11 42.71 130.00 41.68 128.82 40.74 C 125.49 39.29 129.65 37.54 130.98 36.24 C 134.49 34.48 136.56 30.30 131.20 29.72 C 129.51 28.41 127.87 27.04 126.45 25.44 Z"
     id="path118" />
  <path
     fill="#c37e54"
     d=" M 134.61 20.96 C 136.54 18.16 140.10 19.06 143.11 18.94 L 144.17 18.97 L 145.30 19.02 L 144.86 19.63 C 142.73 24.77 137.49 26.78 134.61 20.96 Z"
     id="path120" />
  <path
     fill="#c39d39"
     d=" M 250.95 29.23 C 256.90 29.14 253.65 18.45 260.23 18.53 C 260.66 18.60 261.52 18.75 261.96 18.83 C 260.19 21.11 254.56 23.55 258.81 26.17 C 262.26 31.96 254.55 30.60 250.95 29.23 Z"
     id="path122" />
  <path
     fill="#5e4b38"
     d=" M 278.22 18.91 L 279.10 19.02 L 279.93 19.16 C 282.45 22.36 276.89 25.67 275.98 28.95 C 274.88 30.53 274.06 32.27 273.39 34.07 C 272.42 32.22 271.58 30.31 270.75 28.40 C 271.91 27.61 273.08 26.83 274.24 26.03 C 276.29 29.91 279.32 21.20 278.22 18.91 Z"
     id="path124" />
  <path
     fill="#b20b0c"
     d=" M 491.22 26.81 C 490.70 24.41 489.71 19.57 493.00 19.03 C 497.73 20.38 499.98 28.38 496.76 31.88 C 496.05 31.88 494.64 31.89 493.94 31.89 C 492.91 30.26 492.00 28.57 491.22 26.81 Z"
     id="path126" />
  <path
     fill="#bdb9ae"
     d=" M 572.05 22.18 C 570.88 17.07 581.59 17.25 581.00 21.95 C 578.02 21.98 574.98 22.06 572.05 22.18 Z"
     id="path128" />
  <path
     fill="#f4c23f"
     d=" M 668.69 27.09 C 669.58 23.47 672.86 19.10 676.71 19.29 C 678.83 21.14 681.11 22.81 683.36 24.51 C 678.94 29.48 675.49 34.88 673.19 41.24 C 669.16 44.82 672.73 51.25 667.63 53.74 C 663.56 54.22 658.86 56.22 655.08 53.74 C 651.49 45.65 660.10 46.48 664.30 43.50 C 665.36 42.92 666.31 42.14 667.09 41.20 C 668.59 38.25 667.15 34.85 667.59 31.70 C 667.95 30.16 668.31 28.62 668.69 27.09 Z"
     id="path130" />
  <path
     fill="#9f6829"
     d=" M 396.79 29.95 C 399.40 26.78 399.05 20.83 404.01 20.07 C 407.00 20.62 407.17 24.89 407.91 27.16 C 406.47 30.69 402.03 30.77 398.91 31.29 C 402.10 34.89 404.17 39.76 408.11 42.47 C 402.05 41.53 398.32 47.83 391.99 46.13 C 391.71 45.87 391.16 45.34 390.89 45.08 C 389.84 42.03 388.59 39.03 387.90 35.87 C 389.60 36.49 391.16 37.41 392.72 38.30 C 393.60 42.60 397.52 40.46 398.32 37.33 C 401.35 33.23 393.52 36.64 392.36 35.59 C 389.03 34.81 387.33 31.58 386.04 28.73 C 386.01 27.12 386.00 25.50 385.96 23.88 C 387.13 26.74 388.55 29.10 391.25 26.06 C 393.07 27.38 394.16 30.53 396.79 29.95 Z"
     id="path132" />
  <path
     fill="#9c7a47"
     d=" M 468.25 19.99 C 472.79 22.95 467.98 29.63 469.86 34.17 L 469.66 34.93 C 469.00 36.05 468.30 37.16 467.64 38.28 C 467.21 32.19 467.20 26.03 468.25 19.99 Z"
     id="path134" />
  <path
     fill="#d8ab38"
     d=" M 666.12 20.20 C 667.43 19.72 667.86 23.50 667.49 24.67 C 664.89 30.53 663.20 36.82 660.93 42.81 C 661.77 42.98 663.46 43.33 664.30 43.50 C 660.10 46.48 651.49 45.65 655.08 53.74 C 658.86 56.22 663.56 54.22 667.63 53.74 C 672.73 51.25 669.16 44.82 673.19 41.24 C 675.49 34.88 678.94 29.48 683.36 24.51 L 683.73 23.78 C 684.23 26.42 686.12 29.59 683.76 31.87 C 680.32 38.05 675.74 43.58 672.68 49.97 C 671.87 51.44 671.30 53.02 671.14 54.69 C 670.07 57.58 668.00 60.03 665.13 61.24 C 656.41 63.56 651.36 55.95 653.84 48.03 C 653.01 47.16 654.75 39.03 651.08 41.96 C 651.07 41.53 651.06 40.68 651.05 40.25 C 662.74 39.69 657.48 24.90 666.12 20.20 Z"
     id="path136" />
  <path
     fill="#fdde4e"
     d=" M 719.54 28.17 C 720.04 25.65 717.78 19.79 721.77 20.19 C 726.03 25.33 726.15 32.90 730.31 38.30 C 729.06 41.52 725.97 42.90 722.96 44.00 C 722.45 44.26 721.42 44.79 720.91 45.06 C 717.57 45.35 714.53 43.69 712.71 40.93 C 712.58 40.61 712.31 39.96 712.17 39.64 C 711.71 38.49 711.29 37.32 710.81 36.19 C 708.31 32.08 701.59 27.27 706.22 22.04 C 711.47 21.39 712.31 29.16 716.89 30.26 C 718.42 30.36 719.30 29.66 719.54 28.17 Z"
     id="path138" />
  <path
     fill="#a57d66"
     d=" M 174.11 21.85 C 179.30 19.93 190.47 22.15 193.27 29.71 C 197.62 36.58 189.10 40.86 189.08 46.87 C 194.52 55.43 194.74 67.85 187.71 75.50 C 186.77 75.14 185.84 74.75 184.94 74.31 C 190.14 73.67 190.65 67.07 192.07 63.01 C 192.19 59.72 192.04 56.36 190.73 53.30 C 187.73 50.14 180.78 53.19 179.58 47.95 C 181.26 45.20 184.61 44.98 187.50 44.49 C 190.06 40.69 193.62 36.76 193.00 31.82 C 189.91 23.77 181.65 22.17 174.11 21.85 Z"
     id="path140" />
  <path
     fill="#b77533"
     d=" M 280.97 34.87 C 283.64 30.44 283.72 23.34 289.08 20.99 C 293.04 19.50 297.02 26.30 294.10 27.75 C 289.91 26.91 286.83 32.41 285.88 36.07 C 289.42 36.69 290.80 33.01 292.84 30.90 C 295.42 28.24 300.43 26.40 302.80 30.19 C 306.58 33.71 301.14 37.31 298.86 39.77 C 302.00 38.68 306.89 41.09 306.00 44.80 C 298.12 44.88 292.02 54.29 284.31 50.72 C 282.26 48.42 282.01 45.09 281.02 42.26 C 281.49 41.23 281.93 40.19 282.34 39.13 C 285.43 33.01 279.06 36.00 276.77 38.93 C 273.11 39.55 271.12 37.16 273.39 34.07 C 274.06 32.27 274.88 30.53 275.98 28.95 C 273.53 34.60 276.98 32.87 280.97 34.87 Z"
     id="path142" />
  <path
     fill="#96602c"
     d=" M 411.86 28.11 C 412.79 22.99 419.19 22.82 423.02 20.84 C 423.02 21.37 423.00 22.41 423.00 22.94 C 419.36 24.81 415.80 26.95 411.86 28.11 Z"
     id="path144" />
  <path
     fill="#b87634"
     d=" M 169.02 34.77 C 170.29 30.62 171.34 24.93 174.11 21.85 C 181.65 22.17 189.91 23.77 193.00 31.82 C 190.40 32.37 188.01 34.46 185.27 33.86 C 181.06 32.31 184.32 19.59 181.75 26.84 C 181.31 31.30 170.02 28.78 175.39 33.55 C 181.40 36.44 172.63 39.76 169.85 36.14 C 169.64 35.80 169.23 35.11 169.02 34.77 Z"
     id="path148" />
  <path
     fill="#a8a39c"
     d=" M 266.66 25.01 C 268.07 19.95 272.60 22.81 274.24 26.03 C 273.08 26.83 271.91 27.61 270.75 28.40 C 268.82 28.04 267.08 27.07 266.66 25.01 Z"
     id="path150" />
  <path
     fill="#fcd847"
     d=" M 557.43 30.18 C 557.15 26.47 559.17 18.94 563.27 23.71 C 564.48 31.32 567.37 39.40 566.28 47.24 C 564.22 49.56 560.74 49.38 557.99 50.30 C 555.02 49.40 552.46 47.54 550.91 44.83 C 550.71 44.25 550.29 43.10 550.09 42.52 C 549.53 40.99 548.88 39.48 547.96 38.14 C 545.42 34.76 539.99 29.62 544.71 25.68 C 548.80 22.67 550.30 29.11 552.89 31.16 C 553.40 31.44 554.41 31.99 554.92 32.26 C 556.44 32.37 557.28 31.68 557.43 30.18 Z"
     id="path152" />
  <path
     fill="#b26f47"
     d=" M 14.93 26.11 C 21.44 24.12 28.76 20.82 35.08 25.31 C 35.52 25.56 36.38 26.06 36.81 26.31 C 39.23 28.49 41.70 31.42 42.13 34.74 C 38.14 34.70 33.39 35.66 30.61 32.01 C 35.96 28.67 29.51 25.58 26.17 24.15 C 23.20 30.05 18.75 33.38 14.93 26.11 Z"
     id="path156" />
  <path
     fill="#a6a6b3"
     d=" M 594.11 23.77 C 595.26 20.49 603.54 24.90 601.95 29.10 L 601.19 29.46 C 598.60 27.86 596.26 25.91 594.11 23.77 Z"
     id="path160" />
  <path
     fill="#cea438"
     d=" M 762.16 23.05 C 764.73 23.64 762.95 30.93 760.88 33.10 C 757.79 37.32 753.56 41.03 752.12 46.23 C 751.47 47.85 750.77 49.46 749.98 51.02 C 749.24 52.30 748.56 53.62 747.93 54.96 C 746.89 56.28 745.65 57.47 744.17 58.28 C 739.79 58.73 735.26 58.50 732.17 55.14 C 732.16 54.38 732.14 52.85 732.13 52.08 C 736.94 56.47 744.26 53.14 748.74 49.80 C 751.31 40.10 756.29 31.16 762.16 23.05 Z"
     id="path162" />
  <path
     fill="#090705"
     d=" M 26.17 24.15 C 29.51 25.58 35.96 28.67 30.61 32.01 C 28.34 34.03 24.60 36.93 29.99 38.02 C 35.21 38.75 34.12 42.93 32.08 46.09 C 30.42 47.33 28.58 48.51 27.13 46.36 C 25.44 44.83 23.84 43.19 22.00 41.86 C 19.91 44.02 18.21 46.55 17.08 49.33 C 15.80 49.54 14.54 49.24 13.31 48.98 C 11.01 47.75 8.61 46.44 7.72 43.80 C 8.53 43.27 9.34 42.74 10.15 42.20 C 13.65 41.09 17.82 35.81 12.09 34.56 C 11.21 34.27 10.31 34.00 9.41 33.75 C 6.51 32.58 6.77 29.84 9.04 28.15 C 9.27 27.86 9.74 27.30 9.97 27.01 C 11.49 25.86 13.21 24.40 14.93 26.11 C 18.75 33.38 23.20 30.05 26.17 24.15 Z"
     id="path164" />
  <path
     fill="#a0834f"
     d=" M 152.22 24.04 L 153.15 24.00 C 158.49 27.98 156.55 36.59 160.88 41.76 C 158.46 43.36 156.25 45.24 153.96 47.03 C 156.62 43.17 155.93 40.92 150.84 41.77 C 151.45 40.78 152.13 39.83 152.84 38.91 C 160.37 40.07 156.45 25.52 150.57 26.01 C 150.99 25.51 151.81 24.53 152.22 24.04 Z"
     id="path166" />
  <path
     fill="#694120"
     d=" M 181.75 26.84 C 184.32 19.59 181.06 32.31 185.27 33.86 C 188.01 34.46 190.40 32.37 193.00 31.82 C 193.62 36.76 190.06 40.69 187.50 44.49 C 184.61 44.98 181.26 45.20 179.58 47.95 C 178.15 49.76 177.01 51.83 175.25 53.36 C 172.71 52.81 167.33 54.84 168.06 51.24 C 171.58 51.56 180.53 50.69 174.40 46.57 C 173.79 42.74 171.97 39.33 169.85 36.14 C 172.63 39.76 181.40 36.44 175.39 33.55 C 170.02 28.78 181.31 31.30 181.75 26.84 Z"
     id="path168" />
  <path
     fill="#b40d0e"
     d=" M 380.15 25.05 C 382.08 24.66 384.00 24.15 385.96 23.88 C 386.00 25.50 386.01 27.12 386.04 28.73 C 384.51 28.98 381.47 29.49 379.94 29.74 C 377.74 30.98 375.72 32.51 373.62 33.90 C 373.18 33.92 372.29 33.95 371.85 33.96 C 373.91 30.43 376.71 27.30 380.15 25.05 Z"
     id="path170" />
  <path
     fill="#7b612b"
     d=" M 514.99 32.98 C 521.50 33.11 520.29 21.09 528.03 24.71 C 524.41 35.00 514.78 41.17 507.01 48.04 C 504.49 50.36 507.67 52.69 508.12 55.09 C 504.57 57.24 502.49 52.86 499.19 52.96 C 497.00 58.05 495.01 63.24 491.90 67.88 C 491.42 67.95 490.48 68.10 490.00 68.18 C 492.92 62.93 497.44 54.21 490.66 50.24 C 485.81 50.92 480.96 51.57 476.12 52.31 C 475.94 56.27 475.84 60.22 475.81 64.19 C 475.59 63.91 475.13 63.35 474.91 63.08 C 475.76 55.62 474.96 47.89 469.94 41.97 C 469.28 42.65 468.64 43.35 468.03 44.08 C 467.97 42.14 467.82 40.21 467.64 38.28 C 468.30 37.16 469.00 36.05 469.66 34.93 C 469.10 39.72 474.63 36.99 477.78 37.28 C 481.04 37.62 484.37 37.95 487.66 38.17 C 490.18 40.13 496.49 42.69 498.13 39.31 C 499.65 39.61 501.18 39.89 502.73 40.13 C 501.20 44.28 508.40 45.70 510.32 42.32 C 513.78 40.03 509.94 33.12 514.99 32.98 Z"
     id="path172" />
  <path
     fill="#ecbe40"
     d=" M 585.86 31.26 C 587.13 27.62 590.23 24.46 594.11 23.77 C 596.26 25.91 598.60 27.86 601.19 29.46 C 595.69 30.83 590.26 32.77 589.23 39.19 C 587.16 44.07 585.08 37.13 585.77 34.77 C 585.81 33.60 585.84 32.43 585.86 31.26 Z"
     id="path174" />
  <path
     fill="#fdde4d"
     d=" M 642.21 23.85 C 647.96 26.61 646.97 35.57 651.05 40.25 C 651.06 40.68 651.07 41.53 651.08 41.96 C 650.03 43.28 648.95 44.56 647.84 45.82 C 645.89 46.15 643.98 46.60 642.10 47.15 C 639.32 47.17 636.40 46.41 634.83 43.94 C 634.12 42.53 633.39 41.13 632.53 39.81 C 631.73 38.53 630.87 37.30 629.97 36.10 C 626.53 33.22 625.07 28.80 628.19 25.01 C 633.60 23.28 633.48 31.74 637.99 32.16 C 640.06 32.49 641.37 31.64 641.16 29.45 C 641.42 28.05 641.95 25.25 642.21 23.85 Z"
     id="path176" />
  <path
     fill="#ac703a"
     d=" M 125.30 24.54 L 125.89 24.98 L 126.45 25.44 C 127.87 27.04 129.51 28.41 131.20 29.72 C 130.30 31.61 127.04 36.02 130.98 36.24 C 129.65 37.54 125.49 39.29 128.82 40.74 C 127.70 42.05 126.77 43.50 126.03 45.06 C 122.96 46.65 119.29 40.60 120.31 37.32 C 120.67 31.95 129.76 30.43 125.30 24.54 Z"
     id="path178" />
  <path
     fill="#8f662f"
     d=" M 258.81 26.17 C 261.62 29.44 265.09 29.28 266.66 25.01 C 267.08 27.07 268.82 28.04 270.75 28.40 C 271.58 30.31 272.42 32.22 273.39 34.07 C 271.12 37.16 273.11 39.55 276.77 38.93 C 279.06 36.00 285.43 33.01 282.34 39.13 C 282.40 34.12 276.43 43.15 274.00 40.37 C 273.84 44.27 278.41 42.52 281.02 42.26 C 282.01 45.09 282.26 48.42 284.31 50.72 C 292.02 54.29 298.12 44.88 306.00 44.80 C 306.28 49.46 299.18 49.09 296.06 51.17 C 290.29 54.96 283.14 53.70 277.33 57.35 C 273.04 59.90 269.87 54.35 265.91 54.18 C 265.62 54.63 265.04 55.55 264.75 56.01 C 263.20 53.59 262.96 50.69 262.96 47.89 C 266.95 47.56 270.87 53.49 274.04 51.29 C 275.10 48.41 274.88 40.95 271.29 40.38 C 267.34 41.33 263.41 40.89 259.64 39.65 L 260.14 38.95 C 264.74 38.80 273.56 43.11 271.02 34.16 C 266.18 32.26 261.17 30.74 255.92 30.97 C 256.01 32.37 259.10 35.17 256.23 35.02 C 254.81 34.96 253.75 35.74 253.01 36.88 C 252.77 37.17 252.29 37.75 252.05 38.04 C 247.59 35.97 241.26 33.95 242.81 27.80 C 245.65 26.32 248.38 28.02 250.95 29.23 C 254.55 30.60 262.26 31.96 258.81 26.17 Z"
     id="path180" />
  <path
     fill="#f95b55"
     d=" M 374.33 25.16 C 375.05 25.16 376.49 25.17 377.21 25.17 C 372.58 27.58 368.38 30.69 363.85 33.27 L 363.98 32.43 C 366.90 29.38 370.66 27.23 374.33 25.16 Z"
     id="path182" />
  <path
     fill="#eb0605"
     d=" M 377.21 25.17 C 377.94 25.14 379.41 25.08 380.15 25.05 C 376.71 27.30 373.91 30.43 371.85 33.96 C 369.49 35.26 366.93 36.11 364.37 36.87 L 363.52 37.03 C 363.52 35.77 363.59 34.50 363.85 33.27 C 368.38 30.69 372.58 27.58 377.21 25.17 Z"
     id="path184" />
  <path
     fill="#d0a537"
     d=" M 568.26 43.75 C 567.39 34.43 573.53 24.39 583.93 24.93 C 584.65 25.87 585.70 27.57 584.49 28.56 C 579.80 32.86 581.30 40.03 578.48 45.38 C 577.08 47.30 579.84 47.61 581.04 48.38 C 578.66 49.82 576.01 50.64 573.39 51.50 C 569.94 52.55 572.47 57.32 572.05 60.01 C 577.92 59.15 590.88 61.03 588.09 50.99 C 588.82 48.26 586.60 46.83 584.15 46.73 C 585.24 44.92 584.59 43.30 583.15 41.96 C 586.20 42.42 584.41 38.53 584.79 36.76 C 585.04 36.26 585.53 35.26 585.77 34.77 C 585.08 37.13 587.16 44.07 589.23 39.19 C 590.26 32.77 595.69 30.83 601.19 29.46 L 601.95 29.10 C 602.25 30.62 602.65 32.13 602.79 33.67 C 599.35 34.59 597.63 37.58 596.95 40.98 C 595.15 47.43 589.30 52.17 589.02 59.12 C 587.79 62.42 585.39 64.98 582.10 66.29 C 577.65 66.14 570.91 64.82 570.98 59.17 C 570.80 54.97 570.98 50.70 570.11 46.57 C 569.99 45.33 569.56 44.15 568.26 43.75 Z"
     id="path186" />
  <path
     fill="#b18e37"
     d=" M 660.93 42.81 C 663.20 36.82 664.89 30.53 667.49 24.67 C 667.79 25.28 668.39 26.48 668.69 27.09 C 668.31 28.62 667.95 30.16 667.59 31.70 C 666.27 34.59 660.90 41.71 667.09 41.20 C 666.31 42.14 665.36 42.92 664.30 43.50 C 663.46 43.33 661.77 42.98 660.93 42.81 Z"
     id="path188" />
  <path
     fill="#da635c"
     d=" M 66.70 33.81 C 67.81 30.99 68.88 28.12 70.84 25.74 C 73.09 26.71 68.45 36.15 72.75 34.81 C 74.97 30.64 79.01 28.04 83.14 25.96 C 81.99 29.60 78.53 32.09 77.91 36.02 C 80.32 35.70 82.68 35.05 85.12 34.93 C 82.37 36.82 79.93 39.32 79.89 42.88 C 79.64 42.65 79.15 42.19 78.91 41.96 C 78.90 41.53 78.88 40.67 78.88 40.24 C 81.02 38.58 79.57 35.93 77.01 36.92 C 77.22 34.87 77.56 32.83 77.80 30.79 C 76.17 32.25 74.93 34.06 73.83 35.93 C 68.25 35.47 62.66 34.97 57.06 34.96 C 59.47 34.67 64.29 34.10 66.70 33.81 Z"
     id="path190" />
  <path
     fill="#795531"
     d=" M 149.21 27.69 C 149.64 27.11 150.10 26.55 150.57 26.01 C 156.45 25.52 160.37 40.07 152.84 38.91 C 154.94 35.80 153.06 34.10 149.96 33.22 C 153.74 33.32 151.54 28.45 149.21 27.69 Z"
     id="path192" />
  <path
     fill="#7c5128"
     d=" M 285.88 36.07 C 286.83 32.41 289.91 26.91 294.10 27.75 C 293.72 28.82 293.30 29.87 292.84 30.90 C 290.80 33.01 289.42 36.69 285.88 36.07 Z"
     id="path194" />
  <path
     fill="#bc8553"
     d=" M 491.22 26.81 C 492.00 28.57 492.91 30.26 493.94 31.89 C 491.67 33.81 489.76 36.08 487.66 38.17 C 484.37 37.95 481.04 37.62 477.78 37.28 C 484.47 40.25 490.12 33.17 484.09 29.09 C 486.18 28.78 490.18 31.27 490.94 29.10 C 491.01 28.53 491.15 27.39 491.22 26.81 Z"
     id="path196" />
  <path
     fill="#d7d5da"
     d=" M 149.21 27.69 C 151.54 28.45 153.74 33.32 149.96 33.22 C 146.45 32.26 146.77 29.81 149.21 27.69 Z"
     id="path198" />
  <path
     fill="#ba7a3c"
     d=" M 215.34 31.29 C 217.43 27.36 221.40 28.30 224.03 31.02 C 226.50 26.99 233.90 27.00 232.92 32.90 C 230.99 33.26 229.07 33.70 227.13 34.04 C 224.13 29.10 219.77 36.69 215.77 36.92 C 214.29 38.87 217.69 44.36 213.06 44.59 C 208.87 43.53 211.65 48.55 213.89 49.35 C 214.72 52.62 211.49 53.47 208.91 53.13 C 203.49 51.62 211.84 46.18 208.50 43.52 C 204.10 35.43 217.74 38.56 215.34 31.29 Z"
     id="path200" />
  <path
     fill="#c4b7c4"
     d=" M 472.62 32.11 C 475.30 25.63 485.24 28.60 490.94 29.10 C 490.18 31.27 486.18 28.78 484.09 29.09 C 483.80 29.54 483.20 30.44 482.91 30.89 C 479.53 31.12 475.43 29.86 473.00 32.84 L 472.62 32.11 Z"
     id="path202" />
  <path
     fill="#ad7c3d"
     d=" M 604.25 32.29 C 606.53 30.51 608.65 27.42 611.92 27.99 C 616.09 28.98 616.08 35.88 614.14 38.04 L 613.38 38.22 C 614.87 34.03 609.52 37.11 607.43 37.40 C 607.49 40.96 606.53 45.51 602.50 46.37 C 596.55 44.39 597.87 49.11 598.94 51.50 C 599.12 55.50 597.60 61.14 592.92 61.44 C 593.20 53.51 591.38 54.56 589.02 59.12 C 589.30 52.17 595.15 47.43 596.95 40.98 C 597.63 37.58 599.35 34.59 602.79 33.67 C 602.25 36.13 601.54 38.55 600.97 41.00 C 605.45 40.40 603.46 35.56 604.25 32.29 Z"
     id="path204" />
  <path
     fill="#7d5834"
     d=" M 379.94 29.74 C 381.47 29.49 384.51 28.98 386.04 28.73 C 387.33 31.58 389.03 34.81 392.36 35.59 C 393.52 36.64 401.35 33.23 398.32 37.33 C 396.47 37.72 394.59 38.03 392.72 38.30 C 391.16 37.41 389.60 36.49 387.90 35.87 C 388.59 39.03 389.84 42.03 390.89 45.08 C 389.56 44.08 388.26 43.03 387.00 41.94 C 384.32 39.74 385.56 36.95 386.49 34.21 C 385.03 31.75 383.13 29.40 379.94 29.74 Z"
     id="path206" />
  <path
     fill="#8a5d32"
     d=" M 414.76 35.01 C 418.02 31.17 423.82 31.36 428.04 28.87 C 428.25 31.18 426.04 32.90 423.97 33.30 C 420.94 34.08 417.91 34.96 414.76 35.01 Z"
     id="path208" />
  <path
     fill="#f7c53d"
     d=" M 446.80 36.07 C 445.64 28.93 454.61 30.45 459.32 29.36 C 470.04 25.71 464.94 39.98 467.25 45.25 C 465.57 50.81 459.66 50.16 454.92 50.09 C 450.56 46.97 449.79 40.47 446.80 36.07 Z"
     id="path210" />
  <path
     fill="#e0b954"
     d=" M 482.91 30.89 C 483.20 30.44 483.80 29.54 484.09 29.09 C 490.12 33.17 484.47 40.25 477.78 37.28 C 474.63 36.99 469.10 39.72 469.66 34.93 L 469.86 34.17 C 470.74 33.45 471.65 32.74 472.62 32.11 L 473.00 32.84 C 474.49 38.56 481.99 34.92 482.91 30.89 Z"
     id="path212" />
  <path
     fill="#ab8a39"
     d=" M 578.48 45.38 C 581.30 40.03 579.80 32.86 584.49 28.56 C 584.84 29.23 585.52 30.58 585.86 31.26 C 585.84 32.43 585.81 33.60 585.77 34.77 C 585.53 35.26 585.04 36.26 584.79 36.76 C 583.97 38.39 582.64 40.01 583.15 41.96 C 584.59 43.30 585.24 44.92 584.15 46.73 C 583.10 47.27 582.07 47.82 581.04 48.38 C 579.84 47.61 577.08 47.30 578.48 45.38 Z"
     id="path214" />
  <path
     fill="#da0202"
     d=" M 69.33 30.36 C 72.51 33.67 65.83 35.27 69.33 30.36 Z"
     id="path218" />
  <path
     fill="#d8d6d3"
     d=" M 131.20 29.72 C 136.56 30.30 134.49 34.48 130.98 36.24 C 127.04 36.02 130.30 31.61 131.20 29.72 Z"
     id="path220" />
  <path
     fill="#a46e45"
     d=" M 373.62 33.90 C 375.72 32.51 377.74 30.98 379.94 29.74 C 383.13 29.40 385.03 31.75 386.49 34.21 C 385.56 36.95 384.32 39.74 387.00 41.94 C 388.43 47.24 389.48 52.81 388.79 58.31 L 387.99 57.97 C 388.01 53.51 387.77 49.06 386.80 44.69 C 383.81 47.92 381.69 51.85 378.73 55.12 C 378.49 54.79 378.00 54.13 377.76 53.80 C 384.68 49.16 383.04 35.76 374.26 34.60 L 373.62 33.90 Z"
     id="path222" />
  <path
     fill="#e00505"
     d=" M 73.83 35.93 C 74.93 34.06 76.17 32.25 77.80 30.79 C 77.56 32.83 77.22 34.87 77.01 36.92 C 75.95 36.57 74.89 36.24 73.83 35.93 Z"
     id="path224" />
  <path
     fill="#755423"
     d=" M 255.92 30.97 C 261.17 30.74 266.18 32.26 271.02 34.16 C 273.56 43.11 264.74 38.80 260.14 38.95 C 256.22 38.47 256.89 42.64 257.55 45.13 C 255.11 44.58 253.48 46.47 251.83 47.89 C 252.27 43.20 258.11 39.80 256.23 35.02 C 259.10 35.17 256.01 32.37 255.92 30.97 Z"
     id="path226" />
  <path
     fill="#a09a8c"
     d=" M 473.00 32.84 C 475.43 29.86 479.53 31.12 482.91 30.89 C 481.99 34.92 474.49 38.56 473.00 32.84 Z"
     id="path228" />
  <path
     fill="#e9b951"
     d=" M 500.06 32.90 C 498.85 29.54 505.95 30.35 504.10 33.83 C 502.76 33.48 501.41 33.17 500.06 32.90 Z"
     id="path230" />
  <path
     fill="#a57943"
     d=" M 683.76 31.87 C 683.70 39.05 686.08 29.01 689.92 31.01 C 696.45 32.55 693.37 41.18 694.03 46.00 L 693.12 45.94 C 695.01 40.27 691.90 36.93 686.31 37.96 C 686.16 41.50 687.08 47.55 682.00 48.00 C 674.45 50.81 682.69 62.22 674.01 64.51 C 673.50 61.11 673.08 57.61 671.14 54.69 C 671.30 53.02 671.87 51.44 672.68 49.97 C 672.51 54.42 673.59 58.76 674.24 63.13 C 681.11 59.32 674.17 50.76 680.30 46.31 C 683.80 44.52 684.10 41.28 682.77 37.83 C 679.11 41.64 676.94 46.74 672.68 49.97 C 675.74 43.58 680.32 38.05 683.76 31.87 Z"
     id="path232" />
  <path
     fill="#977146"
     d=" M 760.88 33.10 C 761.78 38.91 764.35 25.58 768.71 31.16 C 773.74 37.30 771.95 48.77 766.96 54.95 C 762.51 59.42 760.26 67.65 753.09 68.18 C 750.29 68.76 749.67 72.02 748.64 74.23 L 747.95 73.80 C 748.10 70.96 749.49 68.42 751.95 66.95 C 759.46 66.92 761.81 57.88 766.38 53.36 C 769.80 49.11 772.16 41.60 768.68 37.14 C 761.48 34.00 763.32 39.17 763.82 43.16 C 764.90 48.28 755.89 46.90 756.29 52.05 C 757.38 56.32 756.80 61.86 751.99 63.50 C 749.97 62.21 752.10 52.42 747.93 54.96 C 748.56 53.62 749.24 52.30 749.98 51.02 C 751.08 54.65 751.76 58.37 752.27 62.13 C 758.62 58.18 752.65 48.99 758.87 44.89 C 762.17 43.25 760.51 39.76 759.87 37.02 C 757.26 40.08 754.82 43.27 752.12 46.23 C 753.56 41.03 757.79 37.32 760.88 33.10 Z"
     id="path234" />
  <path
     fill="#7d5227"
     d=" M 29.99 38.02 C 24.60 36.93 28.34 34.03 30.61 32.01 C 33.39 35.66 38.14 34.70 42.13 34.74 C 44.67 36.46 42.42 41.76 43.03 44.77 C 39.28 44.15 35.54 44.56 32.08 46.09 C 34.12 42.93 35.21 38.75 29.99 38.02 Z"
     id="path236" />
  <path
     fill="#69411f"
     d=" M 215.77 36.92 C 219.77 36.69 224.13 29.10 227.13 34.04 C 227.56 36.17 229.16 38.31 228.66 40.50 C 226.42 41.71 224.09 43.20 223.79 45.99 C 227.98 47.74 231.05 45.33 233.97 43.06 C 234.22 47.86 237.86 49.02 241.42 51.00 C 241.14 51.57 240.57 52.71 240.29 53.29 C 232.07 47.85 220.47 56.70 213.89 49.35 C 211.65 48.55 208.87 43.53 213.06 44.59 C 217.69 44.36 214.29 38.87 215.77 36.92 Z"
     id="path238" />
  <path
     fill="#f3d35f"
     d=" M 487.66 38.17 C 489.76 36.08 491.67 33.81 493.94 31.89 C 494.64 31.89 496.05 31.88 496.76 31.88 L 496.58 32.67 C 495.70 34.81 496.38 37.03 497.13 39.09 C 493.94 38.73 490.83 38.33 487.66 38.17 Z"
     id="path240" />
  <path
     fill="#96612f"
     d=" M 227.13 34.04 C 229.07 33.70 230.99 33.26 232.92 32.90 C 235.39 35.77 234.65 41.76 236.09 45.93 C 236.57 49.05 240.77 47.11 242.14 49.50 L 242.43 50.33 C 242.18 50.50 241.68 50.83 241.42 51.00 C 237.86 49.02 234.22 47.86 233.97 43.06 C 231.05 45.33 227.98 47.74 223.79 45.99 C 224.09 43.20 226.42 41.71 228.66 40.50 C 229.16 38.31 227.56 36.17 227.13 34.04 Z"
     id="path244" />
  <path
     fill="#9f9ca3"
     d=" M 497.13 39.09 C 496.38 37.03 495.70 34.81 496.58 32.67 C 497.45 32.73 499.19 32.84 500.06 32.90 C 501.41 33.17 502.76 33.48 504.10 33.83 C 504.40 34.37 504.99 35.44 505.28 35.98 C 504.97 37.67 504.09 39.09 502.73 40.13 C 501.18 39.89 499.65 39.61 498.13 39.31 L 497.13 39.09 Z"
     id="path246" />
  <path
     fill="#b27d47"
     d=" M 9.41 33.75 C 10.31 34.00 11.21 34.27 12.09 34.56 C 8.47 35.57 8.88 39.50 10.15 42.20 C 9.34 42.74 8.53 43.27 7.72 43.80 C 4.86 43.11 8.12 36.29 9.41 33.75 Z"
     id="path248" />
  <path
     fill="#873b2c"
     d=" M 364.37 36.87 C 366.93 36.11 369.49 35.26 371.85 33.96 C 372.29 33.95 373.18 33.92 373.62 33.90 L 374.26 34.60 C 371.74 36.38 366.06 41.21 364.37 36.87 Z"
     id="path250" />
  <path
     fill="#e2dfdb"
     d=" M 10.15 42.20 C 8.88 39.50 8.47 35.57 12.09 34.56 C 17.82 35.81 13.65 41.09 10.15 42.20 Z"
     id="path252" />
  <path
     fill="#c37d3c"
     d=" M 51.19 47.88 C 49.07 44.01 53.64 37.23 57.06 34.96 C 62.66 34.97 68.25 35.47 73.83 35.93 C 74.89 36.24 75.95 36.57 77.01 36.92 C 77.49 38.10 78.08 39.24 78.88 40.24 C 78.88 40.67 78.90 41.53 78.91 41.96 C 75.43 45.07 70.83 44.26 68.97 39.91 C 68.67 39.39 68.08 38.36 67.79 37.84 C 66.28 34.01 65.83 38.98 64.30 40.31 C 62.18 43.68 57.86 40.84 54.95 40.03 C 57.68 44.09 57.83 51.51 51.19 47.88 Z"
     id="path254" />
  <path
     fill="#927662"
     d=" M 169.02 34.77 C 169.23 35.11 169.64 35.80 169.85 36.14 C 171.97 39.33 173.79 42.74 174.40 46.57 C 170.58 47.85 166.63 48.75 163.01 50.53 C 159.23 51.01 155.29 51.54 151.71 49.97 C 151.97 49.72 152.50 49.24 152.77 48.99 C 159.98 52.40 166.14 46.81 173.05 45.83 C 173.04 41.48 167.95 39.23 169.02 34.77 Z"
     id="path256" />
  <path
     fill="#bb0605"
     d=" M 253.01 36.88 C 253.75 35.74 254.81 34.96 256.23 35.02 C 258.11 39.80 252.27 43.20 251.83 47.89 C 249.49 52.47 247.28 57.17 244.27 61.36 C 244.37 55.03 249.15 50.03 250.06 43.87 C 251.33 41.67 252.70 39.46 253.01 36.88 Z"
     id="path258" />
  <path
     fill="#c77f35"
     d=" M 364.37 36.87 C 366.06 41.21 371.74 36.38 374.26 34.60 C 383.04 35.76 384.68 49.16 377.76 53.80 C 375.51 54.11 373.40 54.96 371.37 55.93 C 368.42 52.56 363.65 53.46 359.98 54.93 L 359.40 55.07 C 355.97 50.69 348.22 52.88 346.68 57.96 L 345.90 58.09 C 345.33 52.72 351.87 52.45 354.86 50.95 C 356.26 46.28 357.48 41.30 361.27 37.92 C 362.01 37.61 362.76 37.32 363.52 37.03 L 364.37 36.87 Z"
     id="path260" />
  <path
     fill="#99622c"
     d=" M 64.30 40.31 C 65.83 38.98 66.28 34.01 67.79 37.84 C 68.00 45.81 57.69 43.04 56.81 49.86 C 55.18 49.93 53.55 49.80 51.92 49.81 C 51.74 49.33 51.37 48.37 51.19 47.88 C 57.83 51.51 57.68 44.09 54.95 40.03 C 57.86 40.84 62.18 43.68 64.30 40.31 Z"
     id="path262" />
  <path
     fill="#855422"
     d=" M 607.43 37.40 C 609.52 37.11 614.87 34.03 613.38 38.22 C 613.01 41.27 613.26 44.60 611.27 47.15 C 606.67 46.78 602.43 48.67 598.94 51.50 C 597.87 49.11 596.55 44.39 602.50 46.37 C 606.53 45.51 607.49 40.96 607.43 37.40 Z"
     id="path264" />
  <path
     fill="#a11512"
     d=" M 77.01 36.92 C 79.57 35.93 81.02 38.58 78.88 40.24 C 78.08 39.24 77.49 38.10 77.01 36.92 Z"
     id="path266" />
  <path
     fill="#b1b1b1"
     d=" M 136.93 44.07 C 138.67 36.57 143.61 35.24 147.29 42.15 C 146.31 42.85 145.31 43.52 144.29 44.16 C 142.45 44.14 138.77 44.10 136.93 44.07 Z"
     id="path268" />
  <path
     fill="#ed5754"
     d=" M 252.05 38.04 C 252.29 37.75 252.77 37.17 253.01 36.88 C 252.70 39.46 251.33 41.67 250.06 43.87 C 247.53 46.06 245.45 48.78 242.43 50.33 L 242.14 49.50 C 246.08 46.29 249.19 42.22 252.05 38.04 Z"
     id="path270" />
  <path
     fill="#67431f"
     d=" M 274.00 40.37 C 276.43 43.15 282.40 34.12 282.34 39.13 C 281.93 40.19 281.49 41.23 281.02 42.26 C 278.41 42.52 273.84 44.27 274.00 40.37 Z"
     id="path272" />
  <path
     fill="#63401d"
     d=" M 763.82 43.16 C 763.32 39.17 761.48 34.00 768.68 37.14 C 772.16 41.60 769.80 49.11 766.38 53.36 C 761.81 57.88 759.46 66.92 751.95 66.95 C 751.96 65.80 751.97 64.65 751.99 63.50 C 756.80 61.86 757.38 56.32 756.29 52.05 C 755.89 46.90 764.90 48.28 763.82 43.16 Z"
     id="path280" />
  <path
     fill="#624320"
     d=" M 56.81 49.86 C 57.69 43.04 68.00 45.81 67.79 37.84 C 68.08 38.36 68.67 39.39 68.97 39.91 C 68.39 45.78 72.89 47.30 77.88 46.14 C 82.19 49.92 81.39 56.17 75.21 53.42 C 74.70 48.99 72.59 48.67 69.41 51.28 C 66.09 51.78 62.37 51.77 59.74 54.19 C 52.48 58.43 45.08 65.73 50.95 74.02 C 56.36 77.62 64.41 75.77 70.74 77.01 C 71.71 79.38 71.62 82.46 73.82 84.13 C 75.71 85.75 77.86 87.06 79.52 88.93 C 77.81 90.36 76.03 91.70 74.29 93.11 C 71.44 90.78 70.45 87.25 68.82 84.14 C 60.03 85.24 51.12 81.00 46.58 73.38 C 44.91 70.03 38.64 69.11 39.17 64.96 C 41.71 61.03 41.34 51.39 34.82 53.85 C 33.48 54.20 32.13 54.51 30.78 54.84 C 33.60 52.29 36.95 49.45 40.94 49.38 C 37.52 56.01 52.22 57.07 51.92 49.81 C 53.55 49.80 55.18 49.93 56.81 49.86 Z"
     id="path282" />
  <path
     fill="#bb9536"
     d=" M 487.66 38.17 C 490.83 38.33 493.94 38.73 497.13 39.09 L 498.13 39.31 C 496.49 42.69 490.18 40.13 487.66 38.17 Z"
     id="path284" />
  <path
     fill="#c4813b"
     d=" M 547.16 37.97 L 547.96 38.14 C 548.88 39.48 549.53 40.99 550.09 42.52 C 546.93 43.71 544.41 45.93 541.94 48.14 C 541.38 44.00 544.84 40.98 547.16 37.97 Z"
     id="path286" />
  <path
     fill="#7f674d"
     d=" M 613.38 38.22 L 614.14 38.04 C 615.92 48.56 606.49 55.42 600.81 62.78 C 598.62 65.62 594.66 65.11 591.75 66.77 L 591.06 67.06 C 591.07 65.85 591.67 65.08 592.85 64.76 C 601.98 63.39 606.25 53.82 611.27 47.15 C 613.26 44.60 613.01 41.27 613.38 38.22 Z"
     id="path288" />
  <path
     fill="#64411d"
     d=" M 686.31 37.96 C 691.90 36.93 695.01 40.27 693.12 45.94 C 689.03 54.45 683.07 64.47 673.96 67.93 C 673.97 66.79 673.99 65.65 674.01 64.51 C 682.69 62.22 674.45 50.81 682.00 48.00 C 687.08 47.55 686.16 41.50 686.31 37.96 Z"
     id="path292" />
  <path
     fill="#9d7c67"
     d=" M 257.55 45.13 C 256.89 42.64 256.22 38.47 260.14 38.95 L 259.64 39.65 C 254.73 47.62 269.27 47.53 274.04 51.29 C 270.87 53.49 266.95 47.56 262.96 47.89 C 261.04 47.22 259.14 46.42 257.55 45.13 Z"
     id="path294" />
  <path
     fill="#795836"
     d=" M 408.11 42.47 C 414.41 41.04 420.70 39.52 427.16 38.93 C 425.77 41.19 423.53 43.37 420.38 42.48 C 411.18 43.62 402.58 48.29 393.20 47.91 C 392.90 47.46 392.29 46.58 391.99 46.13 C 398.32 47.83 402.05 41.53 408.11 42.47 Z"
     id="path296" />
  <path
     fill="#86592b"
     d=" M 68.97 39.91 C 70.83 44.26 75.43 45.07 78.91 41.96 C 79.15 42.19 79.64 42.65 79.89 42.88 C 82.52 45.24 83.48 48.73 82.10 52.01 C 84.75 60.67 83.69 69.71 83.16 78.60 C 81.68 78.72 80.20 78.79 78.71 78.86 C 77.02 76.22 77.44 70.25 73.22 71.07 C 71.67 72.67 71.25 74.93 70.74 77.01 C 64.41 75.77 56.36 77.62 50.95 74.02 C 45.08 65.73 52.48 58.43 59.74 54.19 C 64.71 54.10 70.92 57.03 75.21 53.42 C 81.39 56.17 82.19 49.92 77.88 46.14 C 72.89 47.30 68.39 45.78 68.97 39.91 Z"
     id="path298" />
  <path
     fill="#c07d3c"
     d=" M 632.53 39.81 C 633.39 41.13 634.12 42.53 634.83 43.94 C 630.75 46.43 626.58 48.84 623.01 52.06 C 622.11 46.05 628.05 42.47 632.53 39.81 Z"
     id="path302" />
  <path
     fill="#c38040"
     d=" M 701.00 51.07 C 700.37 44.95 706.80 40.59 712.17 39.64 C 712.31 39.96 712.58 40.61 712.71 40.93 C 710.38 45.89 704.77 47.47 701.00 51.07 Z"
     id="path304" />
  <path
     fill="#cbc5b8"
     d=" M 126.03 45.06 C 126.77 43.50 127.70 42.05 128.82 40.74 C 130.00 41.68 131.11 42.71 132.19 43.77 C 131.38 44.46 130.58 45.16 129.79 45.88 C 128.46 46.30 127.12 45.83 126.03 45.06 Z"
     id="path306" />
  <path
     fill="#ac732f"
     d=" M 651.08 41.96 C 654.75 39.03 653.01 47.16 653.84 48.03 C 651.36 55.95 656.41 63.56 665.13 61.24 C 663.45 62.90 656.49 60.13 657.26 63.82 C 662.46 74.63 650.09 72.57 644.46 69.85 C 644.47 71.29 644.52 72.73 644.53 74.17 C 643.99 73.13 643.53 72.06 643.13 70.97 C 642.43 68.66 641.78 66.32 640.76 64.13 C 640.81 60.02 642.94 56.04 642.31 51.90 L 642.84 51.40 C 646.24 54.12 646.92 60.29 652.92 58.03 C 652.98 54.64 653.04 51.25 652.93 47.85 L 652.96 46.94 C 654.61 43.69 650.03 43.47 651.18 46.74 C 650.06 46.44 648.94 46.14 647.84 45.82 C 648.95 44.56 650.03 43.28 651.08 41.96 Z"
     id="path308" />
  <path
     fill="#97632f"
     d=" M 701.00 51.07 C 704.77 47.47 710.38 45.89 712.71 40.93 C 714.53 43.69 717.57 45.35 720.91 45.06 C 720.47 45.97 720.05 46.88 719.65 47.80 C 711.78 48.12 717.25 58.07 718.24 63.11 C 720.79 69.46 728.63 71.20 734.73 70.85 C 738.49 68.57 737.60 64.47 735.76 61.24 C 739.42 63.62 743.81 63.76 748.04 64.24 C 746.45 73.95 733.35 77.23 725.07 74.98 C 727.02 79.91 729.88 84.39 732.89 88.74 C 732.76 89.03 732.49 89.61 732.36 89.90 C 731.53 91.80 730.72 93.70 729.93 95.61 C 728.98 93.68 726.91 93.97 725.94 95.71 L 725.34 96.31 C 723.46 91.21 723.62 85.71 726.55 81.17 C 723.45 77.44 723.35 69.56 717.30 69.61 C 710.37 65.14 704.38 58.69 701.00 51.07 Z"
     id="path310" />
  <path
     fill="#a5a4a4"
     d=" M 17.08 49.33 C 18.21 46.55 19.91 44.02 22.00 41.86 C 23.84 43.19 25.44 44.83 27.13 46.36 C 26.46 47.20 25.75 48.01 25.02 48.81 C 22.37 48.97 19.72 49.15 17.08 49.33 Z"
     id="path312" />
  <path
     fill="#b89436"
     d=" M 147.29 42.15 C 148.41 44.08 150.11 44.00 150.84 41.77 C 155.93 40.92 156.62 43.17 153.96 47.03 C 153.66 47.52 153.07 48.50 152.77 48.99 C 152.50 49.24 151.97 49.72 151.71 49.97 C 150.40 51.12 149.19 52.37 148.14 53.76 C 145.67 56.90 143.19 60.03 140.69 63.15 C 140.46 63.42 139.99 63.95 139.76 64.22 C 138.44 63.55 137.15 62.82 135.91 62.04 C 134.67 60.96 133.43 59.88 132.13 58.88 C 131.86 58.66 131.31 58.23 131.03 58.01 C 130.18 56.67 129.56 55.19 129.04 53.70 C 132.71 54.16 135.23 57.38 138.79 58.08 C 139.89 53.18 144.88 49.10 144.29 44.16 C 145.31 43.52 146.31 42.85 147.29 42.15 Z"
     id="path314" />
  <path
     fill="#5d401f"
     d=" M 468.03 44.08 C 468.64 43.35 469.28 42.65 469.94 41.97 C 474.96 47.89 475.76 55.62 474.91 63.08 C 469.84 58.38 468.68 51.52 468.02 44.95 L 468.03 44.08 Z"
     id="path316" />
  <path
     fill="#97632d"
     d=" M 541.94 48.14 C 544.41 45.93 546.93 43.71 550.09 42.52 C 550.29 43.10 550.71 44.25 550.91 44.83 C 548.64 45.40 544.96 45.47 546.03 48.79 C 556.93 48.18 547.98 52.12 544.76 50.25 C 547.40 55.07 551.70 60.02 557.72 58.29 C 558.63 58.70 559.31 58.62 559.77 58.07 C 560.39 56.93 560.89 55.73 561.28 54.48 L 562.00 54.67 C 564.40 57.16 566.85 61.67 570.98 59.17 C 570.91 64.82 577.65 66.14 582.10 66.29 C 579.66 66.46 577.34 66.45 574.95 66.49 C 575.96 68.62 578.72 72.09 575.69 73.73 C 572.42 76.33 568.63 73.23 565.14 72.81 C 567.64 78.00 570.38 83.05 573.42 87.95 C 573.05 89.01 572.66 90.06 572.24 91.10 C 571.18 90.74 570.07 89.89 569.04 90.78 L 568.30 91.11 C 564.88 85.65 568.78 78.76 564.19 73.88 C 559.82 63.22 546.14 59.34 541.94 48.14 Z"
     id="path320" />
  <path
     fill="#997932"
     d=" M 32.08 46.09 C 35.54 44.56 39.28 44.15 43.03 44.77 C 42.98 46.56 43.77 49.78 40.94 49.38 C 36.95 49.45 33.60 52.29 30.78 54.84 C 30.20 55.38 29.64 55.93 29.09 56.50 C 27.91 57.87 24.13 60.39 28.16 60.38 L 28.01 61.13 C 24.90 63.50 21.82 66.22 17.85 66.96 C 21.87 62.93 23.84 57.88 25.83 52.72 C 28.14 50.90 28.26 49.30 25.02 48.81 C 25.75 48.01 26.46 47.20 27.13 46.36 C 28.58 48.51 30.42 47.33 32.08 46.09 Z"
     id="path322" />
  <path
     fill="#edc245"
     d=" M 129.79 45.88 C 130.58 45.16 131.38 44.46 132.19 43.77 C 133.72 44.42 135.36 44.91 136.93 44.07 C 138.77 44.10 142.45 44.14 144.29 44.16 C 144.88 49.10 139.89 53.18 138.79 58.08 C 135.23 57.38 132.71 54.16 129.04 53.70 C 128.89 51.06 128.49 48.27 129.79 45.88 Z"
     id="path324" />
  <path
     fill="#eb0201"
     d=" M 242.43 50.33 C 245.45 48.78 247.53 46.06 250.06 43.87 C 249.15 50.03 244.37 55.03 244.27 61.36 C 243.03 63.35 241.48 65.11 239.99 66.92 C 233.38 67.24 240.70 58.28 240.14 54.16 L 240.29 53.29 C 240.57 52.71 241.14 51.57 241.42 51.00 C 241.68 50.83 242.18 50.50 242.43 50.33 Z"
     id="path326" />
  <path
     fill="#847660"
     d=" M 568.26 43.75 C 569.56 44.15 569.99 45.33 570.11 46.57 C 566.90 47.21 567.33 51.76 563.99 51.97 C 562.28 51.94 562.06 53.29 562.00 54.67 L 561.28 54.48 C 558.60 52.89 558.10 56.66 559.77 58.07 C 559.31 58.62 558.63 58.70 557.72 58.29 C 557.80 55.62 557.89 52.96 557.99 50.30 C 560.74 49.38 564.22 49.56 566.28 47.24 C 567.13 46.20 567.74 44.99 568.26 43.75 Z"
     id="path328" />
  <path
     fill="#906437"
     d=" M 623.01 52.06 C 626.58 48.84 630.75 46.43 634.83 43.94 C 636.40 46.41 639.32 47.17 642.10 47.15 C 641.69 48.12 641.28 49.09 640.88 50.06 C 639.60 49.69 638.34 49.30 637.07 49.00 C 638.98 53.90 637.94 59.58 640.76 64.13 C 641.78 66.32 642.43 68.66 643.13 70.97 C 633.46 69.54 627.54 59.88 623.01 52.06 Z"
     id="path330" />
  <path
     fill="#8a8477"
     d=" M 720.91 45.06 C 721.42 44.79 722.45 44.26 722.96 44.00 C 724.87 43.97 726.80 44.04 728.73 44.12 C 728.67 46.55 730.54 45.61 732.01 45.09 C 732.02 45.54 732.05 46.45 732.06 46.91 C 730.27 48.67 719.89 45.40 721.80 50.18 L 721.00 50.18 C 720.66 49.58 719.99 48.39 719.65 47.80 C 720.05 46.88 720.47 45.97 720.91 45.06 Z"
     id="path334" />
  <path
     fill="#b7712d"
     d=" M 251.83 47.89 C 253.48 46.47 255.11 44.58 257.55 45.13 C 259.14 46.42 261.04 47.22 262.96 47.89 C 262.96 50.69 263.20 53.59 264.75 56.01 C 265.56 57.28 266.47 58.48 267.33 59.71 C 267.27 64.09 267.00 68.48 265.99 72.76 C 263.12 71.88 260.27 72.08 258.59 74.85 C 258.27 75.16 257.62 75.76 257.30 76.07 C 253.23 74.57 248.93 74.42 245.73 77.53 C 244.89 78.08 244.07 78.65 243.25 79.23 C 242.71 79.11 241.64 78.89 241.10 78.78 C 241.06 78.29 240.97 77.30 240.93 76.81 C 240.89 76.39 240.82 75.57 240.78 75.16 C 240.50 72.74 240.26 70.33 240.06 67.91 L 239.99 66.92 C 240.30 68.48 240.91 71.60 241.22 73.16 C 246.64 66.01 249.87 56.69 251.83 47.89 Z"
     id="path336" />
  <path
     fill="#875a2a"
     d=" M 378.73 55.12 C 381.69 51.85 383.81 47.92 386.80 44.69 C 387.77 49.06 388.01 53.51 387.99 57.97 C 385.14 56.91 382.22 55.98 379.16 55.78 L 378.73 55.12 Z"
     id="path338" />
  <path
     fill="#8c7354"
     d=" M 467.25 45.25 L 468.02 44.95 C 468.68 51.52 469.84 58.38 474.91 63.08 C 475.13 63.35 475.59 63.91 475.81 64.19 C 478.38 67.83 482.57 70.09 487.24 68.94 C 483.56 69.04 480.77 69.90 482.64 73.41 C 483.37 76.67 484.65 79.81 484.91 83.16 C 481.69 79.77 482.36 74.50 480.61 70.41 C 473.79 65.32 467.12 58.14 467.92 48.94 C 466.45 55.79 458.79 54.57 454.92 50.09 C 459.66 50.16 465.57 50.81 467.25 45.25 Z"
     id="path340" />
  <path
     fill="#70471e"
     d=" M 546.03 48.79 C 544.96 45.47 548.64 45.40 550.91 44.83 C 552.46 47.54 555.02 49.40 557.99 50.30 C 557.89 52.96 557.80 55.62 557.72 58.29 C 551.70 60.02 547.40 55.07 544.76 50.25 C 547.98 52.12 556.93 48.18 546.03 48.79 Z"
     id="path342" />
  <path
     fill="#6e441e"
     d=" M 714.30 45.46 C 718.50 45.45 715.74 47.57 713.98 49.14 C 714.56 53.09 716.72 56.77 716.02 61.00 C 709.58 63.58 706.12 58.09 703.80 53.27 C 707.22 56.23 713.56 50.64 706.96 50.92 C 703.80 47.86 712.49 47.98 714.30 45.46 Z"
     id="path344" />
  <path
     fill="#8d8679"
     d=" M 642.10 47.15 C 643.98 46.60 645.89 46.15 647.84 45.82 C 648.94 46.14 650.06 46.44 651.18 46.74 C 651.63 46.79 652.52 46.89 652.96 46.94 L 652.93 47.85 C 649.56 48.89 645.58 49.03 642.84 51.40 L 642.31 51.90 C 641.95 51.44 641.24 50.52 640.88 50.06 C 641.28 49.09 641.69 48.12 642.10 47.15 Z"
     id="path346" />
  <path
     fill="#7f684e"
     d=" M 693.12 45.94 L 694.03 46.00 C 692.74 54.20 685.54 59.50 680.80 65.78 C 678.60 69.21 673.53 68.04 671.62 71.66 L 671.11 72.26 C 671.32 70.48 671.76 68.11 673.96 67.93 C 683.07 64.47 689.03 54.45 693.12 45.94 Z"
     id="path348" />
  <path
     fill="#7e4f21"
     d=" M 163.01 50.53 C 166.63 48.75 170.58 47.85 174.40 46.57 C 180.53 50.69 171.58 51.56 168.06 51.24 C 167.33 54.84 172.71 52.81 175.25 53.36 C 172.19 57.27 168.79 61.00 166.29 65.32 C 164.35 71.30 176.34 66.11 175.18 72.93 C 170.41 73.71 165.55 74.26 160.79 73.17 C 160.56 72.87 160.08 72.27 159.84 71.97 C 160.83 68.11 161.96 64.24 161.46 60.19 C 162.16 56.99 165.46 53.75 163.01 50.53 Z"
     id="path350" />
  <path
     fill="#5a4225"
     d=" M 563.99 51.97 C 567.33 51.76 566.90 47.21 570.11 46.57 C 570.98 50.70 570.80 54.97 570.98 59.17 C 566.85 61.67 564.40 57.16 562.00 54.67 C 562.06 53.29 562.28 51.94 563.99 51.97 Z"
     id="path352" />
  <path
     fill="#eebc3b"
     d=" M 581.04 48.38 C 582.07 47.82 583.10 47.27 584.15 46.73 C 586.60 46.83 588.82 48.26 588.09 50.99 C 590.88 61.03 577.92 59.15 572.05 60.01 C 572.47 57.32 569.94 52.55 573.39 51.50 C 576.01 50.64 578.66 49.82 581.04 48.38 Z"
     id="path354" />
  <path
     fill="#5e3c1a"
     d=" M 598.94 51.50 C 602.43 48.67 606.67 46.78 611.27 47.15 C 606.25 53.82 601.98 63.39 592.85 64.76 C 592.88 63.65 592.90 62.55 592.92 61.44 C 597.60 61.14 599.12 55.50 598.94 51.50 Z"
     id="path356" />
  <path
     fill="#6e441e"
     d=" M 635.82 47.05 C 637.33 47.25 635.17 52.39 637.55 54.41 C 642.62 66.56 627.49 61.65 625.85 54.16 C 630.85 57.57 634.63 51.24 629.07 51.83 C 623.23 49.65 633.67 47.23 635.82 47.05 Z"
     id="path358" />
  <path
     fill="#5c4629"
     d=" M 721.80 50.18 C 719.89 45.40 730.27 48.67 732.06 46.91 C 732.09 48.34 732.11 49.77 732.13 51.21 L 732.13 52.08 C 732.14 52.85 732.16 54.38 732.17 55.14 C 726.57 58.68 724.70 53.28 721.80 50.18 Z"
     id="path360" />
  <path
     fill="#9d6731"
     d=" M 175.25 53.36 C 177.01 51.83 178.15 49.76 179.58 47.95 C 180.78 53.19 187.73 50.14 190.73 53.30 C 192.04 56.36 192.19 59.72 192.07 63.01 C 186.21 62.67 182.60 65.05 183.14 71.28 C 185.22 62.66 171.30 68.26 175.76 75.25 C 175.61 74.67 175.32 73.51 175.18 72.93 C 176.34 66.11 164.35 71.30 166.29 65.32 C 168.79 61.00 172.19 57.27 175.25 53.36 Z"
     id="path362" />
  <path
     fill="#75371a"
     d=" M 244.27 61.36 C 247.28 57.17 249.49 52.47 251.83 47.89 C 249.87 56.69 246.64 66.01 241.22 73.16 C 240.91 71.60 240.30 68.48 239.99 66.92 C 241.48 65.11 243.03 63.35 244.27 61.36 Z"
     id="path364" />
  <path
     fill="#58432b"
     d=" M 642.84 51.40 C 645.58 49.03 649.56 48.89 652.93 47.85 C 653.04 51.25 652.98 54.64 652.92 58.03 C 646.92 60.29 646.24 54.12 642.84 51.40 Z"
     id="path368" />
  <path
     fill="#f0c342"
     d=" M 13.31 48.98 C 14.54 49.24 15.80 49.54 17.08 49.33 C 19.72 49.15 22.37 48.97 25.02 48.81 C 28.26 49.30 28.14 50.90 25.83 52.72 C 21.25 54.74 18.25 59.55 13.09 60.30 L 12.28 60.14 C 12.61 56.38 11.11 52.37 13.31 48.98 Z"
     id="path372" />
  <path
     fill="#a36b3e"
     d=" M 69.41 51.28 C 72.59 48.67 74.70 48.99 75.21 53.42 C 70.92 57.03 64.71 54.10 59.74 54.19 C 62.37 51.77 66.09 51.78 69.41 51.28 Z"
     id="path374" />
  <path
     fill="#7f6145"
     d=" M 213.89 49.35 C 220.47 56.70 232.07 47.85 240.29 53.29 L 240.14 54.16 L 239.23 54.14 C 232.61 51.89 226.56 52.11 220.01 53.89 C 216.37 51.69 211.18 57.99 208.91 53.13 C 211.49 53.47 214.72 52.62 213.89 49.35 Z"
     id="path376" />
  <path
     fill="#5d3b1a"
     d=" M 148.14 53.76 C 149.19 52.37 150.40 51.12 151.71 49.97 C 155.29 51.54 159.23 51.01 163.01 50.53 C 165.46 53.75 162.16 56.99 161.46 60.19 C 161.96 64.24 160.83 68.11 159.84 71.97 C 157.31 67.24 155.19 61.83 149.95 59.44 C 150.84 56.55 150.24 54.65 148.14 53.76 Z"
     id="path380" />
  <path
     fill="#f0c954"
     d=" M 340.17 54.78 C 343.25 50.50 349.80 48.64 354.86 50.95 C 351.87 52.45 345.33 52.72 345.90 58.09 C 344.72 58.42 343.34 58.22 342.30 58.88 C 338.85 60.37 334.69 71.41 331.03 65.89 C 331.04 65.41 331.07 64.44 331.08 63.96 C 332.33 60.24 344.07 58.55 340.17 54.78 Z"
     id="path382" />
  <path
     fill="#c59b32"
     d=" M 476.12 52.31 C 480.96 51.57 485.81 50.92 490.66 50.24 C 497.44 54.21 492.92 62.93 490.00 68.18 C 489.53 68.31 488.58 68.59 488.10 68.72 L 487.24 68.94 C 482.57 70.09 478.38 67.83 475.81 64.19 C 475.84 60.22 475.94 56.27 476.12 52.31 Z"
     id="path384" />
  <path
     fill="#b1742d"
     d=" M 721.00 50.18 L 721.80 50.18 C 724.70 53.28 726.57 58.68 732.17 55.14 C 735.26 58.50 739.79 58.73 744.17 58.28 C 742.73 60.17 733.07 56.84 735.76 61.24 C 737.60 64.47 738.49 68.57 734.73 70.85 C 728.63 71.20 720.79 69.46 718.24 63.11 C 719.26 58.84 721.05 54.65 721.00 50.18 Z"
     id="path386" />
  <path
     fill="#cba035"
     d=" M 13.09 60.30 C 18.25 59.55 21.25 54.74 25.83 52.72 C 23.84 57.88 21.87 62.93 17.85 66.96 C 17.39 67.00 16.48 67.07 16.03 67.11 C 14.95 64.88 14.02 62.59 13.09 60.30 Z"
     id="path388" />
  <path
     fill="#4e3118"
     d=" M 34.82 53.85 C 41.34 51.39 41.71 61.03 39.17 64.96 C 35.24 62.60 31.50 66.24 29.20 69.17 C 23.70 72.69 14.65 72.65 10.04 68.87 C 17.12 69.13 26.40 71.69 27.97 61.98 C 29.55 63.03 31.39 64.88 33.35 63.44 C 37.98 62.22 34.92 57.08 34.82 53.85 Z"
     id="path390" />
  <path
     fill="#82642f"
     d=" M 346.68 57.96 C 348.22 52.88 355.97 50.69 359.40 55.07 C 358.33 55.85 357.26 56.61 356.16 57.32 C 353.55 57.16 350.52 55.17 348.49 57.76 C 348.04 57.81 347.13 57.91 346.68 57.96 Z"
     id="path392" />
  <path
     fill="#f1d68b"
     d=" M 359.98 54.93 C 363.65 53.46 368.42 52.56 371.37 55.93 C 369.81 56.76 368.23 57.56 366.57 58.17 C 364.80 56.34 362.35 55.61 359.98 54.93 Z"
     id="path394" />
  <path
     fill="#52371c"
     d=" M 499.19 52.96 C 502.49 52.86 504.57 57.24 508.12 55.09 C 508.37 55.29 508.87 55.69 509.11 55.89 C 509.32 64.34 497.31 64.21 491.90 67.88 C 495.01 63.24 497.00 58.05 499.19 52.96 Z"
     id="path396" />
  <path
     fill="#790806"
     d=" M 30.78 54.84 C 32.13 54.51 33.48 54.20 34.82 53.85 C 34.92 57.08 37.98 62.22 33.35 63.44 C 31.39 64.88 29.55 63.03 27.97 61.98 L 28.01 61.13 L 28.16 60.38 C 29.32 59.35 30.12 57.95 29.09 56.50 C 29.64 55.93 30.20 55.38 30.78 54.84 Z"
     id="path398" />
  <path
     fill="#850a06"
     d=" M 148.14 53.76 C 150.24 54.65 150.84 56.55 149.95 59.44 C 149.76 60.05 149.38 61.28 149.19 61.89 C 148.88 62.43 148.28 63.50 147.97 64.03 C 145.46 64.63 142.77 65.07 140.69 63.15 C 143.19 60.03 145.67 56.90 148.14 53.76 Z"
     id="path400" />
  <path
     fill="#ec5555"
     d=" M 239.23 54.14 L 240.14 54.16 C 240.70 58.28 233.38 67.24 239.99 66.92 L 240.06 67.91 C 231.98 69.52 238.39 58.49 239.23 54.14 Z"
     id="path402" />
  <path
     fill="#a77368"
     d=" M 264.75 56.01 C 265.04 55.55 265.62 54.63 265.91 54.18 C 267.98 57.95 271.17 60.93 273.25 64.70 C 276.38 64.72 279.35 66.64 280.22 69.73 C 278.57 69.50 276.37 68.24 275.22 70.09 C 275.30 71.96 278.22 75.66 275.88 76.22 C 275.31 75.57 274.75 74.92 274.20 74.26 C 274.21 71.56 273.80 68.57 276.85 67.39 C 272.63 66.15 270.22 62.85 267.33 59.71 C 266.47 58.48 265.56 57.28 264.75 56.01 Z"
     id="path404" />
  <path
     fill="#e9c24f"
     d=" M 371.37 55.93 C 373.40 54.96 375.51 54.11 377.76 53.80 C 378.00 54.13 378.49 54.79 378.73 55.12 L 379.16 55.78 C 377.30 57.71 376.26 60.28 378.79 62.16 C 379.25 63.95 379.73 65.73 380.21 67.51 C 377.46 67.70 374.08 67.18 373.85 63.80 C 374.36 62.20 374.84 60.59 375.07 58.93 C 370.77 58.16 370.51 64.20 366.57 64.60 C 357.63 68.49 365.32 61.35 366.05 58.85 L 366.57 58.17 C 368.23 57.56 369.81 56.76 371.37 55.93 Z"
     id="path406" />
  <path
     fill="#785227"
     d=" M 747.93 54.96 C 752.10 52.42 749.97 62.21 751.99 63.50 C 751.97 64.65 751.96 65.80 751.95 66.95 C 749.49 68.42 748.10 70.96 747.95 73.80 C 747.68 76.62 744.56 80.12 748.59 81.47 C 752.07 82.90 749.53 87.08 751.50 89.44 C 752.15 90.55 753.17 91.59 753.04 92.98 C 753.04 93.78 753.02 95.39 753.02 96.19 C 744.72 94.12 748.73 83.53 742.96 79.77 C 740.58 81.61 736.64 84.37 739.23 87.55 C 738.91 87.87 738.25 88.51 737.92 88.83 C 736.23 88.83 734.55 88.80 732.89 88.74 C 729.88 84.39 727.02 79.91 725.07 74.98 C 733.35 77.23 746.45 73.95 748.04 64.24 C 743.81 63.76 739.42 63.62 735.76 61.24 C 733.07 56.84 742.73 60.17 744.17 58.28 C 745.65 57.47 746.89 56.28 747.93 54.96 Z"
     id="path410" />
  <path
     fill="#fae371"
     d=" M 313.10 61.47 C 319.23 51.49 331.02 57.29 340.17 54.78 C 344.07 58.55 332.33 60.24 331.08 63.96 C 329.16 63.29 327.15 62.99 325.13 62.89 C 326.17 60.91 327.35 58.99 328.12 56.88 C 323.17 57.56 319.58 61.62 315.35 63.93 C 314.64 63.08 313.89 62.26 313.10 61.47 Z"
     id="path412" />
  <path
     fill="#a7a4ab"
     d=" M 359.40 55.07 L 359.98 54.93 C 362.35 55.61 364.80 56.34 366.57 58.17 L 366.05 58.85 C 363.63 62.00 357.62 65.42 355.77 60.10 C 355.87 59.40 356.06 58.01 356.16 57.32 C 357.26 56.61 358.33 55.85 359.40 55.07 Z"
     id="path414" />
  <path
     fill="#735028"
     d=" M 589.02 59.12 C 591.38 54.56 593.20 53.51 592.92 61.44 C 592.90 62.55 592.88 63.65 592.85 64.76 C 591.67 65.08 591.07 65.85 591.06 67.06 C 589.11 72.68 589.36 77.80 593.00 82.81 C 599.66 89.08 595.42 100.89 585.79 98.92 L 585.80 98.09 C 589.35 97.68 593.66 96.62 595.02 92.89 C 595.92 89.22 590.37 89.44 589.60 86.37 C 587.48 83.52 590.27 78.05 585.93 77.03 C 581.42 78.68 571.65 81.60 575.06 87.93 C 574.65 87.94 573.83 87.95 573.42 87.95 C 570.38 83.05 567.64 78.00 565.14 72.81 C 568.63 73.23 572.42 76.33 575.69 73.73 C 578.72 72.09 575.96 68.62 574.95 66.49 C 577.34 66.45 579.66 66.46 582.10 66.29 C 585.39 64.98 587.79 62.42 589.02 59.12 Z"
     id="path416" />
  <path
     fill="#785229"
     d=" M 671.14 54.69 C 673.08 57.61 673.50 61.11 674.01 64.51 C 673.99 65.65 673.97 66.79 673.96 67.93 C 671.76 68.11 671.32 70.48 671.11 72.26 C 671.00 75.04 669.66 77.43 668.35 79.80 C 672.22 81.40 672.76 84.44 672.81 87.92 C 680.33 94.61 675.25 108.23 664.04 104.01 L 664.00 103.06 C 667.68 104.24 677.11 102.00 674.59 96.42 C 668.90 92.53 669.37 85.63 666.64 80.08 C 661.83 80.76 655.85 86.71 662.12 89.91 L 661.20 89.92 C 659.06 89.91 656.94 89.87 654.82 89.77 C 651.79 85.14 649.03 80.32 646.80 75.25 C 654.13 78.39 665.04 76.06 668.09 68.14 C 664.50 66.64 660.56 65.99 657.26 63.82 C 656.49 60.13 663.45 62.90 665.13 61.24 C 668.00 60.03 670.07 57.58 671.14 54.69 Z"
     id="path418" />
  <path
     fill="#b47942"
     d=" M 121.38 56.35 C 124.49 55.74 127.68 58.42 131.03 58.01 C 131.31 58.23 131.86 58.66 132.13 58.88 C 127.87 57.33 124.08 57.88 121.70 61.53 C 117.13 60.87 110.22 66.91 110.74 70.67 C 113.10 71.83 113.42 74.19 111.71 76.12 C 110.67 76.30 109.63 76.50 108.60 76.74 C 106.74 75.14 109.82 69.29 108.12 66.04 C 109.30 59.30 117.64 60.66 121.38 56.35 Z"
     id="path420" />
  <path
     fill="#e8d282"
     d=" M 379.16 55.78 C 382.22 55.98 385.14 56.91 387.99 57.97 L 388.79 58.31 C 389.73 60.14 390.62 62.02 391.10 64.03 C 390.68 63.97 389.84 63.85 389.42 63.79 C 387.91 58.97 381.97 58.84 378.79 62.16 C 376.26 60.28 377.30 57.71 379.16 55.78 Z"
     id="path422" />
  <path
     fill="#916059"
     d=" M 509.11 55.89 C 512.60 58.75 509.10 62.76 505.67 63.54 C 500.09 64.56 496.02 69.65 490.04 69.21 C 490.77 75.53 490.69 81.85 489.82 88.16 C 486.57 87.13 489.89 80.14 486.07 82.96 C 488.75 80.12 491.32 76.35 489.14 72.10 C 488.84 70.95 488.49 69.83 488.10 68.72 C 488.58 68.59 489.53 68.31 490.00 68.18 C 490.48 68.10 491.42 67.95 491.90 67.88 C 497.31 64.21 509.32 64.34 509.11 55.89 Z"
     id="path424" />
  <path
     fill="#efc345"
     d=" M 315.35 63.93 C 319.58 61.62 323.17 57.56 328.12 56.88 C 327.35 58.99 326.17 60.91 325.13 62.89 C 324.85 63.39 324.29 64.40 324.01 64.91 C 321.17 66.62 314.55 73.83 314.68 66.70 C 314.85 66.01 315.19 64.62 315.35 63.93 Z"
     id="path428" />
  <path
     fill="#815225"
     d=" M 121.70 61.53 C 124.08 57.88 127.87 57.33 132.13 58.88 C 133.43 59.88 134.67 60.96 135.91 62.04 C 130.68 64.50 124.91 63.31 119.36 63.36 C 116.55 65.87 113.70 68.33 110.74 70.67 C 110.22 66.91 117.13 60.87 121.70 61.53 Z"
     id="path430" />
  <path
     fill="#a59067"
     d=" M 342.30 58.88 C 343.34 58.22 344.72 58.42 345.90 58.09 L 346.68 57.96 C 347.13 57.91 348.04 57.81 348.49 57.76 C 350.03 60.44 352.58 62.49 353.80 65.33 C 350.99 62.61 347.65 61.38 344.22 63.87 C 343.80 62.13 343.12 60.47 342.30 58.88 Z"
     id="path432" />
  <path
     fill="#bc7735"
     d=" M 1.91 64.82 C 0.49 58.62 8.37 58.92 12.28 60.14 L 13.09 60.30 C 14.02 62.59 14.95 64.88 16.03 67.11 C 10.87 68.63 6.84 64.76 1.91 64.82 Z"
     id="path434" />
  <path
     fill="#c49f3e"
     d=" M 342.30 58.88 C 343.12 60.47 343.80 62.13 344.22 63.87 C 343.96 64.45 343.43 65.61 343.16 66.19 C 341.38 67.24 339.55 68.22 337.70 69.16 C 334.31 70.45 329.35 72.77 330.99 66.86 L 331.03 65.89 C 334.69 71.41 338.85 60.37 342.30 58.88 Z"
     id="path436" />
  <path
     fill="#a18949"
     d=" M 355.77 60.10 C 357.62 65.42 363.63 62.00 366.05 58.85 C 365.32 61.35 357.63 68.49 366.57 64.60 C 370.51 64.20 370.77 58.16 375.07 58.93 C 374.84 60.59 374.36 62.20 373.85 63.80 C 369.29 64.55 364.89 66.40 360.08 66.13 C 360.65 67.16 361.27 68.16 361.90 69.16 L 361.09 68.84 C 357.94 67.26 351.78 63.08 355.77 60.10 Z"
     id="path438" />
  <path
     fill="#a06325"
     d=" M 55.30 60.14 C 61.96 58.12 69.78 65.53 69.90 71.76 C 65.02 74.18 49.60 74.21 52.96 64.00 C 52.67 62.23 54.17 61.19 55.30 60.14 Z"
     id="path440" />
  <path
     fill="#876f4c"
     d=" M 149.19 61.89 C 149.38 61.28 149.76 60.05 149.95 59.44 C 155.19 61.83 157.31 67.24 159.84 71.97 C 160.08 72.27 160.56 72.87 160.79 73.17 C 162.90 75.80 164.91 78.52 166.99 81.18 C 165.70 82.17 164.43 83.19 163.18 84.23 C 159.62 83.10 165.51 77.36 161.26 75.73 C 156.13 72.61 156.25 61.05 149.19 61.89 Z"
     id="path442" />
  <path
     fill="#8b582d"
     d=" M 267.33 59.71 C 270.22 62.85 272.63 66.15 276.85 67.39 C 273.80 68.57 274.21 71.56 274.20 74.26 C 271.49 73.64 268.71 73.22 265.99 72.76 C 267.00 68.48 267.27 64.09 267.33 59.71 Z"
     id="path444" />
  <path
     fill="#9a989e"
     d=" M 378.79 62.16 C 381.97 58.84 387.91 58.97 389.42 63.79 C 388.61 64.98 387.81 66.18 387.00 67.37 C 384.73 67.45 382.46 67.51 380.21 67.51 C 379.73 65.73 379.25 63.95 378.79 62.16 Z"
     id="path446" />
  <path
     fill="#825221"
     d=" M 17.85 66.96 C 21.82 66.22 24.90 63.50 28.01 61.13 L 27.97 61.98 C 26.40 71.69 17.12 69.13 10.04 68.87 C 6.87 68.50 3.12 68.28 1.91 64.82 C 6.84 64.76 10.87 68.63 16.03 67.11 C 16.48 67.07 17.39 67.00 17.85 66.96 Z"
     id="path448" />
  <path
     fill="#523518"
     d=" M 119.36 63.36 C 124.91 63.31 130.68 64.50 135.91 62.04 C 137.15 62.82 138.44 63.55 139.76 64.22 C 135.14 68.21 132.92 76.32 125.33 75.46 C 123.15 77.61 121.52 80.33 119.06 82.19 C 116.88 79.81 114.00 78.31 111.71 76.12 C 113.42 74.19 113.10 71.83 110.74 70.67 C 113.70 68.33 116.55 65.87 119.36 63.36 Z"
     id="path450" />
  <path
     fill="#afacab"
     d=" M 312.90 71.14 C 309.06 68.98 309.50 63.62 313.10 61.47 C 313.89 62.26 314.64 63.08 315.35 63.93 C 315.19 64.62 314.85 66.01 314.68 66.70 C 312.36 67.36 312.00 69.06 312.90 71.14 Z"
     id="path452" />
  <path
     fill="#7a6d4c"
     d=" M 344.22 63.87 C 347.65 61.38 350.99 62.61 353.80 65.33 C 355.19 68.69 357.07 73.01 353.79 75.93 C 348.38 77.08 343.17 75.29 338.80 72.20 C 335.17 69.03 329.63 74.98 326.25 72.40 C 324.01 68.83 330.05 69.83 330.99 66.86 C 329.35 72.77 334.31 70.45 337.70 69.16 C 341.59 72.70 349.12 77.87 353.92 73.68 C 357.16 64.85 348.19 66.43 343.16 66.19 C 343.43 65.61 343.96 64.45 344.22 63.87 Z"
     id="path454" />
  <path
     fill="#7b6150"
     d=" M 139.76 64.22 C 139.99 63.95 140.46 63.42 140.69 63.15 C 142.77 65.07 145.46 64.63 147.97 64.03 C 146.59 66.50 143.40 65.93 141.07 65.42 C 135.56 68.60 134.23 78.09 126.20 76.24 C 124.16 78.95 120.16 86.16 116.29 81.72 C 114.99 78.26 110.44 79.45 108.60 76.74 C 109.63 76.50 110.67 76.30 111.71 76.12 C 114.00 78.31 116.88 79.81 119.06 82.19 C 121.52 80.33 123.15 77.61 125.33 75.46 C 132.92 76.32 135.14 68.21 139.76 64.22 Z"
     id="path456" />
  <path
     fill="#774f24"
     d=" M 183.14 71.28 C 182.60 65.05 186.21 62.67 192.07 63.01 C 190.65 67.07 190.14 73.67 184.94 74.31 C 184.23 73.63 183.56 72.90 182.94 72.14 L 183.14 71.28 Z"
     id="path458" />
  <path
     fill="#a09d9d"
     d=" M 325.13 62.89 C 327.15 62.99 329.16 63.29 331.08 63.96 C 331.07 64.44 331.04 65.41 331.03 65.89 L 330.99 66.86 C 330.05 69.83 324.01 68.83 326.25 72.40 C 324.62 72.35 323.74 71.26 323.27 69.83 C 323.56 68.20 323.79 66.55 324.01 64.91 C 324.29 64.40 324.85 63.39 325.13 62.89 Z"
     id="path460" />
  <path
     fill="#62542a"
     d=" M 360.08 66.13 C 364.89 66.40 369.29 64.55 373.85 63.80 C 374.08 67.18 377.46 67.70 380.21 67.51 C 382.46 67.51 384.73 67.45 387.00 67.37 C 390.96 70.79 384.94 74.13 382.79 76.78 C 380.86 79.54 378.90 75.93 376.96 75.02 C 373.50 72.12 368.66 78.01 365.54 74.52 C 364.26 72.78 363.17 70.91 361.90 69.16 C 361.27 68.16 360.65 67.16 360.08 66.13 Z"
     id="path462" />
  <path
     fill="#8d7431"
     d=" M 389.42 63.79 C 389.84 63.85 390.68 63.97 391.10 64.03 C 392.55 71.95 383.12 75.26 382.38 82.35 C 381.64 87.89 373.84 90.77 369.56 87.48 C 362.44 83.86 365.11 74.63 361.09 68.84 L 361.90 69.16 C 363.17 70.91 364.26 72.78 365.54 74.52 C 368.66 78.01 373.50 72.12 376.96 75.02 C 378.90 75.93 380.86 79.54 382.79 76.78 C 384.94 74.13 390.96 70.79 387.00 67.37 C 387.81 66.18 388.61 64.98 389.42 63.79 Z"
     id="path464" />
  <path
     fill="#9a622b"
     d=" M 657.26 63.82 C 660.56 65.99 664.50 66.64 668.09 68.14 C 665.04 76.06 654.13 78.39 646.80 75.25 C 649.03 80.32 651.79 85.14 654.82 89.77 C 654.71 90.30 654.48 91.36 654.37 91.89 C 653.90 93.33 654.09 95.27 652.56 96.10 C 651.45 95.68 650.32 95.36 649.17 95.12 L 648.26 94.94 C 644.01 91.82 647.23 85.45 648.59 81.24 C 647.44 78.81 645.09 76.79 644.53 74.17 C 644.52 72.73 644.47 71.29 644.46 69.85 C 650.09 72.57 662.46 74.63 657.26 63.82 Z"
     id="path466" />
  <path
     fill="#8a7748"
     d=" M 314.68 66.70 C 314.55 73.83 321.17 66.62 324.01 64.91 C 323.79 66.55 323.56 68.20 323.27 69.83 C 319.86 70.60 316.37 70.98 312.90 71.14 C 312.00 69.06 312.36 67.36 314.68 66.70 Z"
     id="path468" />
  <path
     fill="#574922"
     d=" M 343.16 66.19 C 348.19 66.43 357.16 64.85 353.92 73.68 C 349.12 77.87 341.59 72.70 337.70 69.16 C 339.55 68.22 341.38 67.24 343.16 66.19 Z"
     id="path470" />
  <path
     fill="#edc053"
     d=" M 175.76 75.25 C 171.30 68.26 185.22 62.66 183.14 71.28 L 182.94 72.14 C 180.60 73.45 178.19 74.63 175.92 76.06 L 175.76 75.25 Z"
     id="path472" />
  <path
     fill="#a28e69"
     d=" M 591.06 67.06 L 591.75 66.77 C 595.19 71.78 595.21 77.47 593.00 82.81 C 589.36 77.80 589.11 72.68 591.06 67.06 Z"
     id="path474" />
  <path
     fill="#4f3728"
     d=" M 487.24 68.94 L 488.10 68.72 C 488.49 69.83 488.84 70.95 489.14 72.10 C 487.01 72.71 484.82 73.08 482.64 73.41 C 480.77 69.90 483.56 69.04 487.24 68.94 Z"
     id="path476" />
  <path
     fill="#f0bf42"
     d=" M 73.22 71.07 C 77.44 70.25 77.02 76.22 78.71 78.86 C 77.18 82.52 83.44 82.09 85.62 83.53 C 89.07 84.45 85.27 87.48 83.47 88.08 C 81.87 84.27 77.21 84.98 73.82 84.13 C 71.62 82.46 71.71 79.38 70.74 77.01 C 71.25 74.93 71.67 72.67 73.22 71.07 Z"
     id="path478" />
  <path
     fill="#e7cc7d"
     d=" M 175.92 76.06 C 178.19 74.63 180.60 73.45 182.94 72.14 C 183.56 72.90 184.23 73.63 184.94 74.31 C 185.84 74.75 186.77 75.14 187.71 75.50 C 193.52 78.70 202.57 80.55 203.75 88.36 C 199.05 87.06 195.31 84.07 192.00 80.63 C 186.36 79.70 180.77 78.24 175.04 77.96 C 175.26 77.49 175.70 76.54 175.92 76.06 Z"
     id="path480" />
  <path
     fill="#f0ce69"
     d=" M 258.59 74.85 C 260.27 72.08 263.12 71.88 265.99 72.76 C 268.71 73.22 271.49 73.64 274.20 74.26 C 274.75 74.92 275.31 75.57 275.88 76.22 C 276.94 77.35 277.41 78.87 277.79 80.34 C 276.61 79.88 275.43 79.41 274.27 78.89 C 272.00 74.31 263.65 75.41 265.12 81.19 C 265.15 81.67 265.19 82.63 265.21 83.11 C 263.91 83.52 262.58 83.85 261.25 84.15 L 260.86 83.32 C 261.28 80.23 259.98 77.50 258.59 74.85 Z"
     id="path482" />
  <path
     fill="#820303"
     d=" M 482.64 73.41 C 484.82 73.08 487.01 72.71 489.14 72.10 C 491.32 76.35 488.75 80.12 486.07 82.96 C 486.24 85.04 484.61 85.57 484.91 83.16 C 484.65 79.81 483.37 76.67 482.64 73.41 Z"
     id="path484" />
  <path
     fill="#a38f6d"
     d=" M 671.11 72.26 L 671.62 71.66 C 672.57 77.13 677.10 82.64 672.81 87.92 C 672.76 84.44 672.22 81.40 668.35 79.80 C 669.66 77.43 671.00 75.04 671.11 72.26 Z"
     id="path486" />
  <path
     fill="#5b3d1d"
     d=" M 160.79 73.17 C 165.55 74.26 170.41 73.71 175.18 72.93 C 175.32 73.51 175.61 74.67 175.76 75.25 L 175.92 76.06 C 175.70 76.54 175.26 77.49 175.04 77.96 C 172.58 79.54 169.71 80.21 166.99 81.18 C 164.91 78.52 162.90 75.80 160.79 73.17 Z"
     id="path488" />
  <path
     fill="#a79474"
     d=" M 747.95 73.80 L 748.64 74.23 C 755.32 78.15 750.96 84.03 751.50 89.44 C 749.53 87.08 752.07 82.90 748.59 81.47 C 744.56 80.12 747.68 76.62 747.95 73.80 Z"
     id="path490" />
  <path
     fill="#f2c254"
     d=" M 230.25 84.37 C 229.65 78.34 236.59 77.08 240.78 75.16 C 240.82 75.57 240.89 76.39 240.93 76.81 C 237.43 79.41 234.22 82.47 230.25 84.37 Z"
     id="path492" />
  <path
     fill="#f4d16b"
     d=" M 245.73 77.53 C 248.93 74.42 253.23 74.57 257.30 76.07 C 256.00 80.45 254.83 86.69 248.86 85.94 C 249.14 85.43 249.70 84.41 249.98 83.90 C 252.86 80.38 249.77 76.98 245.73 77.53 Z"
     id="path494" />
  <path
     fill="#c5a04b"
     d=" M 257.30 76.07 C 257.62 75.76 258.27 75.16 258.59 74.85 C 259.98 77.50 261.28 80.23 260.86 83.32 C 258.97 78.48 255.74 88.69 251.24 87.44 C 250.13 87.12 246.96 87.72 248.86 85.94 C 254.83 86.69 256.00 80.45 257.30 76.07 Z"
     id="path496" />
  <path
     fill="#fad46d"
     d=" M 83.16 78.60 C 88.69 79.48 93.43 75.67 98.76 76.07 C 100.41 77.86 102.12 79.61 103.97 81.19 C 103.93 81.57 103.85 82.33 103.82 82.71 C 100.70 84.93 97.51 87.29 95.66 90.73 C 94.77 91.86 93.87 92.98 93.02 94.13 C 88.29 95.99 83.39 95.22 79.77 91.81 C 80.89 90.45 82.17 89.25 83.47 88.08 C 85.27 87.48 89.07 84.45 85.62 83.53 C 83.44 82.09 77.18 82.52 78.71 78.86 C 80.20 78.79 81.68 78.72 83.16 78.60 Z"
     id="path498" />
  <path
     fill="#c2bfc5"
     d=" M 98.76 76.07 C 101.57 75.33 106.27 80.00 103.97 81.19 C 102.12 79.61 100.41 77.86 98.76 76.07 Z"
     id="path500" />
  <path
     fill="#abaabd"
     d=" M 265.12 81.19 C 263.65 75.41 272.00 74.31 274.27 78.89 C 271.27 79.82 268.25 80.74 265.12 81.19 Z"
     id="path502" />
  <path
     fill="#cba140"
     d=" M 230.25 84.37 C 234.22 82.47 237.43 79.41 240.93 76.81 C 240.97 77.30 241.06 78.29 241.10 78.78 C 238.51 80.40 236.09 82.28 234.00 84.53 C 246.19 87.20 238.49 107.55 230.85 111.92 C 230.32 110.98 229.77 110.05 229.24 109.11 C 235.23 103.00 233.68 94.32 236.93 87.13 C 234.76 84.40 231.94 88.37 229.24 87.42 C 228.63 85.97 228.97 84.95 230.25 84.37 Z"
     id="path504" />
  <path
     fill="#57391b"
     d=" M 575.06 87.93 C 571.65 81.60 581.42 78.68 585.93 77.03 C 590.27 78.05 587.48 83.52 589.60 86.37 C 590.37 89.44 595.92 89.22 595.02 92.89 C 593.66 96.62 589.35 97.68 585.80 98.09 C 585.34 98.14 584.40 98.23 583.94 98.28 C 583.70 92.22 583.48 85.30 575.06 87.93 Z"
     id="path506" />
  <path
     fill="#f2cb55"
     d=" M 166.99 81.18 C 169.71 80.21 172.58 79.54 175.04 77.96 C 180.77 78.24 186.36 79.70 192.00 80.63 C 187.92 81.60 186.63 86.64 182.42 87.24 C 182.06 78.96 172.66 82.08 172.37 88.67 C 171.28 92.18 169.59 95.43 166.91 97.96 C 166.37 97.73 165.28 97.25 164.73 97.01 C 165.46 93.79 164.21 89.90 160.24 90.95 C 161.08 88.65 162.14 86.44 163.18 84.23 C 164.43 83.19 165.70 82.17 166.99 81.18 Z"
     id="path508" />
  <path
     fill="#a4a0a3"
     d=" M 243.25 79.23 C 244.07 78.65 244.89 78.08 245.73 77.53 C 249.77 76.98 252.86 80.38 249.98 83.90 C 246.11 88.70 236.81 83.50 243.25 79.23 Z"
     id="path510" />
  <path
     fill="#8d7541"
     d=" M 234.00 84.53 C 236.09 82.28 238.51 80.40 241.10 78.78 C 241.64 78.89 242.71 79.11 243.25 79.23 C 236.81 83.50 246.11 88.70 249.98 83.90 C 249.70 84.41 249.14 85.43 248.86 85.94 C 246.96 87.72 250.13 87.12 251.24 87.44 C 248.52 88.50 244.13 85.55 244.15 90.12 C 242.41 94.24 246.52 91.92 248.78 91.53 C 248.54 94.02 243.88 93.18 242.75 95.75 C 239.07 101.71 238.36 111.88 230.84 114.09 C 230.83 113.37 230.83 112.64 230.85 111.92 C 238.49 107.55 246.19 87.20 234.00 84.53 Z"
     id="path512" />
  <path
     fill="#8e8c89"
     d=" M 265.12 81.19 C 268.25 80.74 271.27 79.82 274.27 78.89 C 273.92 80.70 273.53 82.51 273.01 84.29 C 271.16 84.70 269.29 85.02 267.41 85.24 C 266.68 84.53 265.95 83.81 265.21 83.11 C 265.19 82.63 265.15 81.67 265.12 81.19 Z"
     id="path514" />
  <path
     fill="#af9648"
     d=" M 274.27 78.89 C 275.43 79.41 276.61 79.88 277.79 80.34 C 279.43 82.39 278.86 84.88 277.95 87.10 L 277.35 86.54 C 276.29 85.18 274.52 84.90 273.01 84.29 C 273.53 82.51 273.92 80.70 274.27 78.89 Z"
     id="path516" />
  <path
     fill="#583a1c"
     d=" M 662.12 89.91 C 655.85 86.71 661.83 80.76 666.64 80.08 C 669.37 85.63 668.90 92.53 674.59 96.42 C 677.11 102.00 667.68 104.24 664.00 103.06 L 663.05 103.03 C 662.55 98.70 666.30 92.91 662.12 89.91 Z"
     id="path518" />
  <path
     fill="#583a1c"
     d=" M 739.23 87.55 C 736.64 84.37 740.58 81.61 742.96 79.77 C 748.73 83.53 744.72 94.12 753.02 96.19 C 754.07 102.74 745.36 104.60 740.58 102.65 C 740.66 102.14 740.83 101.14 740.91 100.64 C 741.77 96.35 743.84 90.37 739.23 87.55 Z"
     id="path520" />
  <path
     fill="#99833e"
     d=" M 182.42 87.24 C 186.63 86.64 187.92 81.60 192.00 80.63 C 195.31 84.07 199.05 87.06 203.75 88.36 C 205.34 88.62 205.83 92.45 204.01 92.15 C 200.43 90.49 197.62 87.71 194.55 85.33 C 189.34 84.40 185.70 88.81 181.05 90.15 C 181.51 89.18 181.97 88.21 182.42 87.24 Z"
     id="path522" />
  <path
     fill="#645529"
     d=" M 251.24 87.44 C 255.74 88.69 258.97 78.48 260.86 83.32 L 261.25 84.15 C 261.90 87.20 265.01 85.61 267.41 85.24 C 269.29 85.02 271.16 84.70 273.01 84.29 C 274.52 84.90 276.29 85.18 277.35 86.54 C 275.90 89.20 274.90 92.06 273.65 94.81 C 270.69 95.87 268.44 93.16 265.91 92.19 C 262.56 92.46 262.70 100.55 258.51 98.64 C 255.93 95.40 253.86 89.12 248.78 91.53 C 246.52 91.92 242.41 94.24 244.15 90.12 C 244.13 85.55 248.52 88.50 251.24 87.44 Z"
     id="path524" />
  <path
     fill="#9c9994"
     d=" M 172.37 88.67 C 172.66 82.08 182.06 78.96 182.42 87.24 C 181.97 88.21 181.51 89.18 181.05 90.15 C 179.08 90.95 176.94 91.09 174.85 91.33 C 173.98 90.47 173.16 89.59 172.37 88.67 Z"
     id="path526" />
  <path
     fill="#b79a41"
     d=" M 95.66 90.73 C 97.51 87.29 100.70 84.93 103.82 82.71 C 104.28 86.88 98.71 89.07 95.66 90.73 Z"
     id="path528" />
  <path
     fill="#b4923a"
     d=" M 265.21 83.11 C 265.95 83.81 266.68 84.53 267.41 85.24 C 265.01 85.61 261.90 87.20 261.25 84.15 C 262.58 83.85 263.91 83.52 265.21 83.11 Z"
     id="path530" />
  <path
     fill="#ae872e"
     d=" M 73.82 84.13 C 77.21 84.98 81.87 84.27 83.47 88.08 C 82.15 88.35 80.84 88.64 79.52 88.93 C 77.86 87.06 75.71 85.75 73.82 84.13 Z"
     id="path532" />
  <path
     fill="#564a27"
     d=" M 181.05 90.15 C 185.70 88.81 189.34 84.40 194.55 85.33 C 197.62 87.71 200.43 90.49 204.01 92.15 C 201.77 98.64 191.37 95.80 186.04 93.86 C 182.46 92.65 177.67 94.29 174.85 91.33 C 176.94 91.09 179.08 90.95 181.05 90.15 Z"
     id="path534" />
  <path
     fill="#f8cc4f"
     d=" M 229.24 87.42 C 231.94 88.37 234.76 84.40 236.93 87.13 C 233.68 94.32 235.23 103.00 229.24 109.11 C 227.54 108.42 225.74 108.11 223.93 107.99 C 223.58 107.41 222.90 106.26 222.55 105.68 C 222.25 100.52 225.31 96.40 227.10 91.86 C 219.68 93.34 221.71 107.28 212.89 106.25 L 212.01 105.90 C 210.60 95.22 221.72 90.82 229.24 87.42 Z"
     id="path536" />
  <path
     fill="#836d30"
     d=" M 277.35 86.54 L 277.95 87.10 C 273.37 93.93 279.26 104.22 269.96 107.99 C 256.97 110.62 259.06 93.31 248.78 91.53 C 253.86 89.12 255.93 95.40 258.51 98.64 C 262.70 100.55 262.56 92.46 265.91 92.19 C 268.44 93.16 270.69 95.87 273.65 94.81 C 274.90 92.06 275.90 89.20 277.35 86.54 Z"
     id="path538" />
  <path
     fill="#e9b641"
     d=" M 79.52 88.93 C 80.84 88.64 82.15 88.35 83.47 88.08 C 82.17 89.25 80.89 90.45 79.77 91.81 C 78.42 95.97 77.71 102.29 82.38 104.83 C 86.71 107.08 89.02 103.65 91.06 100.88 C 90.81 103.74 89.90 106.46 89.04 109.18 C 86.95 107.74 84.55 106.94 82.01 106.86 C 76.83 101.90 73.97 114.21 70.03 105.85 C 68.57 100.96 70.49 96.11 74.29 93.11 C 76.03 91.70 77.81 90.36 79.52 88.93 Z"
     id="path540" />
  <path
     fill="#880606"
     d=" M 573.42 87.95 C 573.83 87.95 574.65 87.94 575.06 87.93 C 583.48 85.30 583.70 92.22 583.94 98.28 C 584.86 101.19 584.74 105.78 579.64 104.55 C 578.68 113.45 571.17 104.95 567.77 103.28 C 569.14 99.18 570.50 95.06 572.24 91.10 C 572.66 90.06 573.05 89.01 573.42 87.95 Z"
     id="path542" />
  <path
     fill="#71110b"
     d=" M 737.92 88.83 C 738.25 88.51 738.91 87.87 739.23 87.55 C 743.84 90.37 741.77 96.35 740.91 100.64 C 738.52 101.91 740.30 106.82 736.97 106.03 C 731.06 106.09 734.86 97.14 734.82 93.62 C 735.82 95.79 734.39 101.11 737.90 99.88 C 737.45 96.89 743.01 89.18 737.92 88.83 Z"
     id="path544" />
  <path
     fill="#a5832d"
     d=" M 166.91 97.96 C 169.59 95.43 171.28 92.18 172.37 88.67 C 173.16 89.59 173.98 90.47 174.85 91.33 C 177.67 94.29 182.46 92.65 186.04 93.86 C 186.38 95.15 186.74 96.45 186.88 97.78 C 182.07 98.47 176.20 102.09 172.27 97.67 C 170.78 95.61 168.73 97.55 166.91 97.96 Z"
     id="path546" />
  <path
     fill="#c00202"
     d=" M 575.96 89.00 C 583.69 86.94 580.21 97.29 577.97 99.96 C 576.09 98.35 577.28 92.27 575.96 89.00 Z"
     id="path548" />
  <path
     fill="#c20403"
     d=" M 732.36 89.90 C 732.49 89.61 732.76 89.03 732.89 88.74 C 734.55 88.80 736.23 88.83 737.92 88.83 C 743.01 89.18 737.45 96.89 737.90 99.88 C 734.39 101.11 735.82 95.79 734.82 93.62 C 734.68 92.02 733.31 91.03 732.36 89.90 Z"
     id="path550" />
  <path
     fill="#c70303"
     d=" M 569.04 90.78 C 570.07 89.89 571.18 90.74 572.24 91.10 C 570.50 95.06 569.14 99.18 567.77 103.28 C 565.73 98.93 568.24 94.94 569.04 90.78 Z"
     id="path552" />
  <path
     fill="#c00503"
     d=" M 654.37 91.89 C 654.48 91.36 654.71 90.30 654.82 89.77 C 656.94 89.87 659.06 89.91 661.20 89.92 C 661.66 93.52 661.71 99.48 658.27 101.09 C 659.43 96.96 657.01 94.25 654.37 91.89 Z"
     id="path554" />
  <path
     fill="#8b0706"
     d=" M 661.20 89.92 L 662.12 89.91 C 666.30 92.91 662.55 98.70 663.05 103.03 C 663.69 108.75 664.29 112.68 658.47 111.36 C 658.04 116.08 654.23 117.16 652.70 112.29 C 652.54 108.00 646.57 112.84 647.11 109.23 C 648.74 104.79 649.62 99.93 652.56 96.10 C 654.09 95.27 653.90 93.33 654.37 91.89 C 657.01 94.25 659.43 96.96 658.27 101.09 C 661.71 99.48 661.66 93.52 661.20 89.92 Z"
     id="path556" />
  <path
     fill="#940605"
     d=" M 732.36 89.90 C 733.31 91.03 734.68 92.02 734.82 93.62 C 734.86 97.14 731.06 106.09 736.97 106.03 C 740.30 106.82 738.52 101.91 740.91 100.64 C 740.83 101.14 740.66 102.14 740.58 102.65 C 739.50 105.51 743.01 114.68 737.53 111.60 C 733.43 108.82 734.93 115.66 733.96 118.19 C 732.60 118.23 731.30 117.47 731.07 116.07 C 730.41 114.09 730.18 111.85 728.80 110.21 C 727.41 109.74 724.16 111.60 724.34 109.27 C 726.28 104.76 726.60 99.49 729.93 95.61 C 730.72 93.70 731.53 91.80 732.36 89.90 Z"
     id="path558" />
  <path
     fill="#bc9d42"
     d=" M 93.02 94.13 C 93.87 92.98 94.77 91.86 95.66 90.73 C 92.19 96.51 93.80 105.05 90.12 110.08 L 89.26 110.21 L 89.04 109.18 C 89.90 106.46 90.81 103.74 91.06 100.88 C 91.63 98.61 92.30 96.36 93.02 94.13 Z"
     id="path560" />
  <path
     fill="#9d9996"
     d=" M 160.24 90.95 C 164.21 89.90 165.46 93.79 164.73 97.01 C 163.13 98.38 160.73 100.18 164.23 100.75 C 158.53 102.12 156.82 94.49 160.24 90.95 Z"
     id="path562" />
  <path
     fill="#be5959"
     d=" M 568.30 91.11 L 569.04 90.78 C 568.24 94.94 565.73 98.93 567.77 103.28 C 571.17 104.95 578.68 113.45 579.64 104.55 C 584.74 105.78 584.86 101.19 583.94 98.28 C 584.40 98.23 585.34 98.14 585.80 98.09 L 585.79 98.92 C 586.62 102.56 584.42 105.23 581.26 106.69 C 579.64 102.02 579.93 114.78 574.96 110.08 C 572.77 105.33 567.77 108.35 566.28 103.66 C 565.24 99.29 565.96 94.87 568.30 91.11 Z"
     id="path564" />
  <path
     fill="#fcd149"
     d=" M 82.38 104.83 C 77.71 102.29 78.42 95.97 79.77 91.81 C 83.39 95.22 88.29 95.99 93.02 94.13 C 92.30 96.36 91.63 98.61 91.06 100.88 C 89.02 103.65 86.71 107.08 82.38 104.83 Z"
     id="path566" />
  <path
     fill="#d9a938"
     d=" M 212.89 106.25 C 221.71 107.28 219.68 93.34 227.10 91.86 C 225.31 96.40 222.25 100.52 222.55 105.68 C 220.49 107.29 219.08 110.03 216.17 110.10 C 215.12 108.77 214.03 107.49 212.89 106.25 Z"
     id="path568" />
  <path
     fill="#99615b"
     d=" M 753.04 92.98 C 758.81 99.98 748.05 107.30 741.12 103.96 C 741.85 107.19 743.29 116.18 737.80 113.21 C 734.17 109.53 737.56 117.48 733.96 118.19 C 734.93 115.66 733.43 108.82 737.53 111.60 C 743.01 114.68 739.50 105.51 740.58 102.65 C 745.36 104.60 754.07 102.74 753.02 96.19 C 753.02 95.39 753.04 93.78 753.04 92.98 Z"
     id="path570" />
  <path
     fill="#ca0504"
     d=" M 725.94 95.71 C 726.91 93.97 728.98 93.68 729.93 95.61 C 726.60 99.49 726.28 104.76 724.34 109.27 C 723.36 104.58 725.23 100.22 725.94 95.71 Z"
     id="path572" />
  <path
     fill="#bf5859"
     d=" M 648.26 94.94 L 649.17 95.12 C 647.75 99.69 646.91 104.43 647.11 109.23 C 646.57 112.84 652.54 108.00 652.70 112.29 C 654.23 117.16 658.04 116.08 658.47 111.36 C 664.29 112.68 663.69 108.75 663.05 103.03 L 664.00 103.06 L 664.04 104.01 C 662.91 106.28 666.40 114.83 661.32 112.57 C 657.31 110.47 659.45 119.23 655.26 117.81 C 653.08 116.13 651.74 113.73 650.74 111.23 C 649.30 112.06 647.26 114.15 646.13 111.75 C 645.45 106.02 645.65 100.16 648.26 94.94 Z"
     id="path574" />
  <path
     fill="#c70202"
     d=" M 649.17 95.12 C 650.32 95.36 651.45 95.68 652.56 96.10 C 649.62 99.93 648.74 104.79 647.11 109.23 C 646.91 104.43 647.75 99.69 649.17 95.12 Z"
     id="path576" />
  <path
     fill="#786534"
     d=" M 166.91 97.96 C 168.73 97.55 170.78 95.61 172.27 97.67 C 176.20 102.09 182.07 98.47 186.88 97.78 C 187.99 99.16 188.87 101.99 187.19 103.14 C 184.65 105.30 181.77 105.96 178.87 104.04 C 173.10 107.08 169.62 101.32 164.23 100.75 C 160.73 100.18 163.13 98.38 164.73 97.01 C 165.28 97.25 166.37 97.73 166.91 97.96 Z"
     id="path578" />
  <path
     fill="#cd5b5c"
     d=" M 725.34 96.31 L 725.94 95.71 C 725.23 100.22 723.36 104.58 724.34 109.27 C 724.16 111.60 727.41 109.74 728.80 110.21 C 730.18 111.85 730.41 114.09 731.07 116.07 C 728.24 114.40 728.76 108.95 724.97 112.85 C 721.11 109.91 722.76 100.94 725.34 96.31 Z"
     id="path580" />
  <path
     fill="#7e7f83"
     d=" M 178.87 104.04 C 181.77 105.96 184.65 105.30 187.19 103.14 C 186.59 107.27 180.25 108.44 178.87 104.04 Z"
     id="path582" />
  <path
     fill="#bb9333"
     d=" M 70.03 105.85 C 73.97 114.21 76.83 101.90 82.01 106.86 C 81.66 107.41 80.97 108.50 80.62 109.04 C 79.93 110.98 81.89 113.56 79.75 114.89 C 76.44 115.79 74.22 112.46 71.30 111.56 C 68.95 110.76 70.37 107.70 70.03 105.85 Z"
     id="path584" />
  <path
     fill="#979387"
     d=" M 212.01 105.90 L 212.89 106.25 C 214.03 107.49 215.12 108.77 216.17 110.10 C 214.63 111.19 216.24 112.19 216.98 113.15 C 214.90 115.63 210.30 109.15 212.01 105.90 Z"
     id="path586" />
  <path
     fill="#8a7031"
     d=" M 216.17 110.10 C 219.08 110.03 220.49 107.29 222.55 105.68 C 222.90 106.26 223.58 107.41 223.93 107.99 C 223.55 108.93 223.17 109.87 222.81 110.82 C 221.22 112.26 219.15 113.21 216.98 113.15 C 216.24 112.19 214.63 111.19 216.17 110.10 Z"
     id="path588" />
  <path
     fill="#9d9486"
     d=" M 82.01 106.86 C 84.55 106.94 86.95 107.74 89.04 109.18 L 89.26 110.21 C 86.23 110.99 82.62 112.06 80.62 109.04 C 80.97 108.50 81.66 107.41 82.01 106.86 Z"
     id="path590" />
  <path
     fill="#8a8782"
     d=" M 223.93 107.99 C 225.74 108.11 227.54 108.42 229.24 109.11 C 229.77 110.05 230.32 110.98 230.85 111.92 C 230.83 112.64 230.83 113.37 230.84 114.09 C 229.38 118.55 223.24 114.16 222.81 110.82 C 223.17 109.87 223.55 108.93 223.93 107.99 Z"
     id="path592" />
  <path
     fill="#6b6861"
     d=" M 79.75 114.89 C 81.89 113.56 79.93 110.98 80.62 109.04 C 82.62 112.06 86.23 110.99 89.26 110.21 L 90.12 110.08 C 90.68 114.68 85.79 115.76 82.17 114.39 C 80.04 121.71 67.84 119.86 71.30 111.56 C 74.22 112.46 76.44 115.79 79.75 114.89 Z"
     id="path594" />
</svg>
